<svg width="197" height="28" viewBox="0 0 197 28" fill="none" xmlns="http://www.w3.org/2000/svg">
<path d="M0.981534 27V0.818181H11.7969C13.7571 0.818181 15.4489 1.2017 16.8722 1.96875C18.304 2.72727 19.4077 3.78835 20.1832 5.15199C20.9588 6.5071 21.3466 8.08381 21.3466 9.8821C21.3466 11.6889 20.9503 13.2699 20.1577 14.625C19.3736 15.9716 18.2528 17.0156 16.7955 17.7571C15.3381 18.4986 13.608 18.8693 11.6051 18.8693H4.93182V13.8835H10.429C11.3835 13.8835 12.1804 13.7173 12.8196 13.3849C13.4673 13.0526 13.9574 12.5881 14.2898 11.9915C14.6222 11.3864 14.7884 10.6832 14.7884 9.8821C14.7884 9.07244 14.6222 8.37358 14.2898 7.78551C13.9574 7.18892 13.4673 6.72869 12.8196 6.40483C12.1719 6.08097 11.375 5.91903 10.429 5.91903H7.30966V27H0.981534ZM34.1435 27H24.4659V0.818181H34.1307C36.7983 0.818181 39.0952 1.34233 41.0213 2.39062C42.956 3.4304 44.4474 4.9304 45.4957 6.89062C46.544 8.84233 47.0682 11.1776 47.0682 13.8963C47.0682 16.6236 46.544 18.9673 45.4957 20.9276C44.456 22.8878 42.9688 24.392 41.0341 25.4403C39.0994 26.4801 36.8026 27 34.1435 27ZM30.794 21.6051H33.9006C35.3665 21.6051 36.6065 21.358 37.6207 20.8636C38.6435 20.3608 39.4148 19.5469 39.9347 18.4219C40.4631 17.2884 40.7273 15.7798 40.7273 13.8963C40.7273 12.0128 40.4631 10.5128 39.9347 9.39631C39.4063 8.27131 38.6264 7.46165 37.5952 6.96733C36.5724 6.46449 35.3111 6.21307 33.8111 6.21307H30.794V21.6051ZM50.7628 27V0.818181H68.6349V5.95739H57.0909V11.3267H67.4972V16.4787H57.0909V27H50.7628Z" fill="black"/>
<path d="M85.9734 8.66761C85.8881 7.73011 85.5089 7.00142 84.8356 6.48153C84.1708 5.95313 83.2205 5.68892 81.9847 5.68892C81.1665 5.68892 80.4847 5.79545 79.9393 6.00852C79.3938 6.22159 78.9847 6.51563 78.712 6.89062C78.4393 7.2571 78.2987 7.67898 78.2901 8.15625C78.2731 8.54829 78.3498 8.89346 78.5202 9.19176C78.6992 9.49006 78.9549 9.75426 79.2873 9.98438C79.6282 10.206 80.0373 10.402 80.5146 10.5724C80.9918 10.7429 81.5288 10.892 82.1254 11.0199L84.3754 11.5312C85.6708 11.8125 86.8129 12.1875 87.8015 12.6562C88.7987 13.125 89.6339 13.6832 90.3072 14.331C90.989 14.9787 91.5046 15.7244 91.854 16.5682C92.2035 17.4119 92.3825 18.358 92.391 19.4062C92.3825 21.0597 91.9648 22.4787 91.1381 23.6634C90.3114 24.848 89.1225 25.7557 87.5714 26.3864C86.0288 27.017 84.1665 27.3324 81.9847 27.3324C79.7944 27.3324 77.8853 27.0043 76.2575 26.348C74.6296 25.6918 73.364 24.6946 72.4606 23.3565C71.5572 22.0185 71.0927 20.3267 71.0671 18.2812H77.1268C77.1779 19.125 77.4038 19.8281 77.8043 20.3906C78.2049 20.9531 78.7546 21.3793 79.4535 21.669C80.1609 21.9588 80.979 22.1037 81.908 22.1037C82.7603 22.1037 83.4847 21.9886 84.0813 21.7585C84.6864 21.5284 85.1509 21.2088 85.4748 20.7997C85.7987 20.3906 85.9648 19.9219 85.9734 19.3935C85.9648 18.8991 85.8114 18.4773 85.5131 18.1278C85.2148 17.7699 84.7546 17.4631 84.1325 17.2074C83.5188 16.9432 82.7347 16.7003 81.7802 16.4787L79.0444 15.8395C76.7773 15.3196 74.9918 14.4801 73.6879 13.321C72.3839 12.1534 71.7362 10.5767 71.7447 8.59091C71.7362 6.97159 72.1708 5.55256 73.0487 4.33381C73.9265 3.11506 75.141 2.16477 76.6921 1.48295C78.2433 0.801136 80.0117 0.460226 81.9975 0.460226C84.0259 0.460226 85.7859 0.805397 87.2773 1.49574C88.7773 2.17756 89.9407 3.13636 90.7674 4.37216C91.5941 5.60795 92.016 7.03977 92.033 8.66761H85.9734ZM106.671 7.36364V11.9659H94.283V7.36364H106.671ZM96.8782 2.65909H103.13V20.8253C103.13 21.2088 103.189 21.5199 103.309 21.7585C103.436 21.9886 103.62 22.1548 103.858 22.2571C104.097 22.3509 104.382 22.3977 104.715 22.3977C104.953 22.3977 105.205 22.3764 105.469 22.3338C105.742 22.2827 105.946 22.2401 106.083 22.206L107.029 26.7188C106.73 26.804 106.309 26.9105 105.763 27.0384C105.226 27.1662 104.583 27.2472 103.833 27.2812C102.367 27.3494 101.11 27.179 100.061 26.7699C99.0217 26.3523 98.2248 25.7045 97.6708 24.8267C97.1254 23.9489 96.8612 22.8452 96.8782 21.5156V2.65909ZM109.86 27V7.36364H115.933V10.9432H116.137C116.495 9.64773 117.079 8.68466 117.889 8.05398C118.699 7.41477 119.64 7.09517 120.714 7.09517C121.004 7.09517 121.302 7.11648 121.609 7.15909C121.916 7.19318 122.201 7.24858 122.466 7.32528V12.7585C122.167 12.6562 121.775 12.5753 121.289 12.5156C120.812 12.456 120.386 12.4261 120.011 12.4261C119.27 12.4261 118.6 12.5923 118.004 12.9247C117.416 13.2486 116.951 13.7045 116.61 14.2926C116.278 14.8722 116.112 15.554 116.112 16.3381V27H109.86ZM133.172 27.3707C131.118 27.3707 129.346 26.9659 127.854 26.1562C126.371 25.3381 125.229 24.1747 124.428 22.6662C123.635 21.1491 123.239 19.3466 123.239 17.2585C123.239 15.2301 123.64 13.4574 124.441 11.9403C125.242 10.4148 126.371 9.23011 127.828 8.38636C129.286 7.53409 131.003 7.10795 132.98 7.10795C134.378 7.10795 135.657 7.32528 136.816 7.75994C137.975 8.1946 138.976 8.83807 139.82 9.69034C140.664 10.5426 141.32 11.5952 141.789 12.848C142.257 14.0923 142.492 15.5199 142.492 17.1307V18.6903H125.425V15.0597H136.675C136.667 14.3949 136.509 13.8026 136.202 13.2827C135.895 12.7628 135.473 12.358 134.936 12.0682C134.408 11.7699 133.799 11.6207 133.108 11.6207C132.409 11.6207 131.783 11.7784 131.229 12.0938C130.675 12.4006 130.236 12.8224 129.912 13.3594C129.588 13.8878 129.418 14.4886 129.401 15.1619V18.8565C129.401 19.6577 129.559 20.3608 129.874 20.9659C130.189 21.5625 130.637 22.027 131.216 22.3594C131.796 22.6918 132.486 22.858 133.287 22.858C133.841 22.858 134.344 22.7812 134.796 22.6278C135.248 22.4744 135.635 22.2486 135.959 21.9503C136.283 21.652 136.526 21.2855 136.688 20.8509L142.428 21.017C142.189 22.304 141.665 23.4247 140.855 24.3793C140.054 25.3253 139.002 26.0625 137.698 26.5909C136.394 27.1108 134.885 27.3707 133.172 27.3707ZM151.22 27.3324C149.967 27.3324 148.855 27.1236 147.884 26.706C146.92 26.2798 146.158 25.6406 145.595 24.7884C145.041 23.9276 144.764 22.8494 144.764 21.554C144.764 20.4631 144.956 19.5426 145.339 18.7926C145.723 18.0426 146.251 17.4332 146.925 16.9645C147.598 16.4957 148.374 16.142 149.251 15.9034C150.129 15.6562 151.067 15.4901 152.064 15.4048C153.18 15.3026 154.08 15.196 154.761 15.0852C155.443 14.9659 155.938 14.7997 156.244 14.5866C156.56 14.3651 156.717 14.054 156.717 13.6534V13.5895C156.717 12.9332 156.491 12.4261 156.04 12.0682C155.588 11.7102 154.979 11.5312 154.212 11.5312C153.385 11.5312 152.72 11.7102 152.217 12.0682C151.714 12.4261 151.395 12.9205 151.259 13.5511L145.493 13.3466C145.663 12.1534 146.102 11.0881 146.81 10.1506C147.526 9.20455 148.506 8.46307 149.75 7.92614C151.003 7.38068 152.507 7.10795 154.263 7.10795C155.516 7.10795 156.67 7.2571 157.727 7.5554C158.784 7.84517 159.705 8.27131 160.489 8.83381C161.273 9.38778 161.878 10.0696 162.304 10.8793C162.739 11.6889 162.956 12.6136 162.956 13.6534V27H157.075V24.2642H156.922C156.572 24.929 156.125 25.4915 155.58 25.9517C155.043 26.4119 154.408 26.7571 153.675 26.9872C152.95 27.2173 152.132 27.3324 151.22 27.3324ZM153.151 23.2415C153.824 23.2415 154.429 23.1051 154.966 22.8324C155.511 22.5597 155.946 22.1847 156.27 21.7074C156.594 21.2216 156.756 20.6591 156.756 20.0199V18.1534C156.577 18.2472 156.359 18.3324 156.104 18.4091C155.857 18.4858 155.584 18.5582 155.286 18.6264C154.987 18.6946 154.68 18.7543 154.365 18.8054C154.05 18.8565 153.747 18.9034 153.457 18.946C152.869 19.0398 152.366 19.1847 151.949 19.3807C151.54 19.5767 151.224 19.8324 151.003 20.1477C150.79 20.4545 150.683 20.821 150.683 21.2472C150.683 21.8949 150.913 22.3892 151.374 22.7301C151.842 23.071 152.435 23.2415 153.151 23.2415ZM166.778 27V7.36364H172.723V10.9688H172.94C173.349 9.77557 174.04 8.83381 175.011 8.14347C175.983 7.45312 177.142 7.10795 178.489 7.10795C179.852 7.10795 181.02 7.45739 181.991 8.15625C182.963 8.85511 183.581 9.79261 183.845 10.9688H184.05C184.416 9.80114 185.132 8.8679 186.197 8.16903C187.263 7.46165 188.52 7.10795 189.969 7.10795C191.827 7.10795 193.335 7.70455 194.494 8.89773C195.653 10.0824 196.233 11.7102 196.233 13.7812V27H189.982V15.2131C189.982 14.233 189.73 13.4872 189.227 12.9759C188.724 12.456 188.072 12.196 187.271 12.196C186.411 12.196 185.733 12.4773 185.239 13.0398C184.753 13.5937 184.51 14.3395 184.51 15.277V27H178.501V15.1491C178.501 14.2372 178.254 13.517 177.76 12.9886C177.266 12.4602 176.614 12.196 175.804 12.196C175.259 12.196 174.777 12.3281 174.359 12.5923C173.942 12.848 173.614 13.2145 173.375 13.6918C173.145 14.169 173.03 14.7315 173.03 15.3793V27H166.778Z" fill="white"/>
</svg>
