<svg width="1266" height="574" viewBox="0 0 1266 574" fill="none" xmlns="http://www.w3.org/2000/svg">
<path d="M218.989 212.913C221.492 213.811 224.108 214.467 226.787 214.871C242.717 217.557 259.359 216.019 274.941 212.15C290.522 208.281 305.18 202.191 319.449 195.676C324.195 193.506 329.025 191.262 334.312 190.401C335.878 190.143 338.088 190.401 338.245 191.733C338.354 192.714 337.178 193.42 336.152 193.902L327.609 197.92C329.661 197.92 331.863 198.23 333.471 199.327C335.078 200.423 335.919 202.438 334.968 203.982C334.018 205.526 331.035 205.979 329.811 204.556C329.025 206.236 327.741 207.72 326.079 208.867C324.417 210.013 322.434 210.784 320.317 211.105C318.423 211.375 316.453 211.272 314.599 211.679C312.595 212.138 310.871 213.189 309.189 214.222C297.957 221.11 286.685 228.101 274.161 233.193C261.637 238.284 247.635 241.43 233.805 240.155" fill="white"/>
<path d="M327.636 198.368C330.509 198.368 334.052 199.189 334.688 201.916C334.847 202.426 334.799 202.967 334.552 203.453C334.304 203.938 333.871 204.34 333.32 204.596C332.84 204.834 332.275 204.923 331.724 204.846C331.174 204.769 330.673 204.533 330.31 204.177C329.962 203.804 329.353 204.08 329.189 204.424C328.082 206.713 326.013 208.581 323.375 209.676C321.974 210.24 320.458 210.575 318.908 210.663C317.109 210.79 315.29 210.813 313.58 211.352C310.42 212.357 307.711 214.423 305.009 216.082C302.068 217.884 299.113 219.675 296.117 221.42C284.359 228.308 271.678 234.542 257.731 237.67C249.943 239.463 241.833 240.06 233.791 239.432C232.615 239.335 232.642 240.85 233.791 240.959C248.354 242.383 263.094 238.715 275.994 233.25C282.635 230.356 289.034 227.086 295.146 223.463C298.188 221.703 301.202 219.908 304.188 218.079L308.799 215.261C310.173 214.346 311.64 213.533 313.183 212.833C315.146 212.018 317.239 212.029 319.339 211.834C321.008 211.688 322.631 211.285 324.127 210.646C327.011 209.376 329.247 207.271 330.42 204.722L329.298 204.969C329.812 205.451 330.495 205.784 331.249 205.918C332.003 206.052 332.788 205.981 333.491 205.715C334.237 205.464 334.874 205.028 335.316 204.465C335.759 203.902 335.986 203.238 335.967 202.564C335.933 198.85 331.289 197.427 327.568 197.473C327.426 197.473 327.29 197.52 327.19 197.604C327.09 197.688 327.034 197.802 327.034 197.92C327.034 198.039 327.09 198.153 327.19 198.237C327.29 198.321 327.426 198.368 327.568 198.368H327.636Z" fill="black"/>
<path d="M218.723 213.298C222.594 214.779 226.842 215.52 231.035 216.031C235.207 216.54 239.418 216.795 243.634 216.794C252.268 216.766 260.867 215.863 269.243 214.102C285.974 210.658 301.671 204.505 316.808 197.731C320.912 195.895 324.955 193.868 329.305 192.456C331.206 191.842 333.491 191.067 335.564 191.113C336.083 191.113 337.007 191.188 337.267 191.653C337.657 192.353 336.234 192.996 335.694 193.266C335.59 193.317 335.5 193.384 335.428 193.464C335.355 193.544 335.303 193.636 335.273 193.733C335.242 193.83 335.235 193.932 335.252 194.031C335.268 194.131 335.308 194.227 335.369 194.313C335.429 194.4 335.51 194.476 335.605 194.536C335.701 194.597 335.81 194.641 335.925 194.667C336.041 194.692 336.162 194.698 336.281 194.684C336.399 194.67 336.514 194.637 336.617 194.586C337.985 193.937 339.558 192.864 339.114 191.383C338.737 190.12 337.185 189.661 335.782 189.563C333.936 189.472 331.966 190.051 330.249 190.545C328.252 191.133 326.306 191.833 324.421 192.64C320.495 194.276 316.699 196.13 312.827 197.852C308.956 199.574 304.907 201.296 300.878 202.92C284.647 209.43 267.465 214.486 249.393 215.485C244.339 215.776 239.264 215.711 234.222 215.29C229.202 214.86 223.921 214.245 219.263 212.552C218.641 212.328 218.093 213.086 218.723 213.321V213.298Z" fill="black"/>
<path d="M229.078 165.404L631.496 209.326C635.311 209.74 639.185 209.506 642.89 208.64C646.595 207.773 650.055 206.291 653.064 204.282C656.074 202.272 658.572 199.776 660.411 196.941C662.249 194.106 663.391 190.99 663.767 187.778C668.008 151.57 671.722 83.5913 648.035 39.5999C644.998 33.913 639.457 29.4324 632.573 27.0958C625.688 24.7591 617.994 24.7477 611.099 27.0638L227.704 156.323C227.006 156.558 226.372 156.908 225.838 157.351C225.304 157.795 224.881 158.324 224.594 158.907C224.307 159.49 224.162 160.115 224.168 160.746C224.173 161.377 224.329 162 224.626 162.579C225.013 163.333 225.627 163.99 226.407 164.485C227.188 164.98 228.108 165.297 229.078 165.404Z" fill="#C0392B"/>
<path d="M648.056 39.6064C646.054 35.8768 642.959 32.6334 639.06 30.1783C635.161 27.7233 630.584 26.1367 625.757 25.5664C621.944 27.5051 618.722 30.1634 616.347 33.33C613.973 36.4966 612.511 40.0843 612.077 43.8081C607.837 80.0103 604.116 147.989 627.809 191.98C629.81 195.711 632.904 198.955 636.804 201.411C640.703 203.866 645.28 205.452 650.108 206.021C653.92 204.082 657.141 201.425 659.516 198.259C661.89 195.094 663.353 191.507 663.788 187.785C668.008 151.571 671.722 83.5921 648.056 39.6064Z" fill="black"/>
<path d="M242.416 238.032C242.547 238.02 242.667 237.968 242.754 237.886C242.841 237.804 242.89 237.697 242.89 237.587C242.89 237.477 242.841 237.371 242.754 237.289C242.667 237.207 242.547 237.155 242.416 237.143C242.286 237.155 242.166 237.207 242.079 237.289C241.991 237.371 241.943 237.477 241.943 237.587C241.943 237.697 241.991 237.804 242.079 237.886C242.166 237.968 242.286 238.02 242.416 238.032Z" fill="black"/>
<path d="M249.865 220.416C253.005 221.375 253.367 220.462 256.671 220.915C254.085 206.623 260.187 193.639 258.921 179.22C258.904 177.75 258.493 176.302 257.718 174.984C256.739 173.566 254.982 172.619 253.88 171.276C252.779 169.933 252.512 167.74 254.202 166.913C255.7 166.173 258.237 166.718 258.826 165.346C258.945 164.955 258.945 164.544 258.826 164.153L258.36 161.684C258.114 160.353 257.902 158.86 258.839 157.764C259.776 156.668 262.335 156.691 262.615 158.022C263.874 156.536 267.129 156.932 267.834 158.648C269.503 157.54 272.451 158.998 272.095 160.76C272.458 160.562 272.891 160.476 273.321 160.516C273.752 160.555 274.152 160.719 274.455 160.978C275.047 161.512 275.45 162.174 275.618 162.89C276.659 166.193 276.458 169.685 275.043 172.889C274.352 174.201 273.74 175.542 273.21 176.907C272.526 179.145 272.841 181.499 273.176 183.795L276.596 207.392C277.588 214.182 278.58 220.984 278.887 227.826C278.99 230.122 277.971 258.248 230.036 239.731" fill="white"/>
<path d="M272.629 161.139C273.477 160.755 274.346 161.34 274.729 161.954C275.112 162.699 275.367 163.486 275.488 164.291C275.817 165.823 275.877 167.387 275.666 168.934C275.422 170.591 274.892 172.21 274.092 173.739C273.331 175.072 272.788 176.485 272.478 177.94C272.267 179.626 272.313 181.327 272.615 183.003C272.861 184.691 273.114 186.378 273.354 188.066C273.853 191.573 274.332 195.08 274.838 198.581C275.85 205.521 276.89 212.455 277.636 219.418C277.93 222.242 278.238 225.094 278.279 227.936V228.935C278.279 228.935 278.238 229.428 278.21 229.675C278.21 229.813 278.176 229.951 278.155 230.088C278.135 230.226 278.155 230.232 278.155 230.301C278.121 230.507 278.155 230.18 278.155 230.398C278.032 231.093 277.882 231.782 277.69 232.465C277.26 234.102 276.57 235.683 275.638 237.166C274.433 239.053 272.757 240.7 270.725 241.993C268.692 243.287 266.35 244.197 263.86 244.662C260.076 245.331 256.176 245.399 252.362 244.863C246.668 244.084 241.106 242.735 235.795 240.845C234.147 240.271 232.512 239.697 230.891 239.066C229.824 238.652 228.887 239.978 229.961 240.397C235.916 242.802 242.169 244.648 248.607 245.902C252.976 246.768 257.489 246.999 261.951 246.585C267.923 245.913 273.251 243.422 276.486 239.089C278.58 236.185 279.82 232.905 280.105 229.52C280.227 227.221 280.126 224.917 279.804 222.632C279.12 215.348 277.848 208.104 276.787 200.854C276.261 197.25 275.707 193.651 275.166 190.052C274.893 188.204 274.605 186.355 274.346 184.507C274.029 182.769 273.883 181.013 273.908 179.255C274.076 177.559 274.611 175.904 275.488 174.37C276.23 172.885 276.745 171.326 277.02 169.732C277.311 168.124 277.331 166.489 277.082 164.876C276.87 163.544 276.582 161.949 275.529 160.858C275.334 160.627 275.085 160.431 274.797 160.283C274.51 160.136 274.189 160.038 273.855 159.997C273.521 159.957 273.181 159.973 272.855 160.046C272.529 160.119 272.224 160.247 271.958 160.422C271.473 160.755 272.088 161.358 272.601 161.122L272.629 161.139Z" fill="black"/>
<path d="M249.598 220.795C250.625 221.266 251.78 221.503 252.95 221.484C254.121 221.415 255.297 221.427 256.466 221.518C256.594 221.545 256.728 221.544 256.855 221.515C256.982 221.485 257.098 221.429 257.191 221.351C257.285 221.273 257.353 221.176 257.389 221.07C257.424 220.963 257.427 220.851 257.396 220.743C255.679 211.054 258.039 201.486 259.345 191.877C259.982 187.17 260.433 182.251 259.667 177.527C259.527 176.413 259.105 175.336 258.429 174.37C257.711 173.523 256.887 172.742 255.973 172.04C255.145 171.445 254.508 170.685 254.12 169.83C253.88 169.164 253.785 168.234 254.475 167.717C255.166 167.201 256.486 167.241 257.403 167.074C257.903 167.018 258.378 166.855 258.78 166.599C259.183 166.344 259.5 166.005 259.701 165.617C259.889 165.067 259.903 164.485 259.742 163.929C259.612 163.2 259.469 162.471 259.325 161.742C259.099 160.542 258.805 159.222 259.646 158.143C260.296 157.311 258.709 156.542 258.059 157.368C256.548 159.28 257.471 161.851 257.861 163.935C257.936 164.337 258.169 164.945 257.779 165.266C257.43 165.463 257.023 165.574 256.603 165.588C255.639 165.648 254.693 165.842 253.805 166.162C251.89 167.046 251.705 169.129 252.437 170.679C253.347 172.608 255.652 173.63 256.869 175.375C257.502 176.41 257.861 177.547 257.923 178.709C258.066 179.984 258.142 181.27 258.169 182.55C258.217 185.006 258.08 187.463 257.854 189.914C257.417 194.781 256.486 199.597 255.919 204.448C255.276 209.987 254.961 215.543 255.919 221.094L256.842 220.313C255.688 220.165 254.517 220.134 253.354 220.221C252.222 220.274 251.088 220.197 249.981 219.992C249.421 219.905 249.003 220.566 249.571 220.807L249.598 220.795Z" fill="black"/>
<path d="M209.468 155.996C210.2 159.848 212.02 163.497 214.776 166.638C215.706 167.689 216.719 169.244 215.576 170.14C215.218 170.36 214.835 170.552 214.434 170.714C212.792 171.58 212.772 173.538 212.868 175.156C213.087 178.6 212.792 182.498 209.783 184.868C206.773 187.239 202.259 187.25 198.271 186.631C187.327 184.909 176.937 178.417 174.331 169.33C173.107 165.077 173.647 160.571 175.104 156.375C176.205 153.252 177.908 150.182 180.733 147.949C185.836 143.931 193.921 143.357 200.433 145.532C204.892 147.019 209.188 151.972 209.468 155.99" fill="white"/>
<path d="M174.837 169.221C173.88 165.289 174.379 161.185 175.617 157.334C176.691 153.999 178.394 150.652 181.486 148.287C184.33 146.225 187.94 145.057 191.698 144.981C195.261 144.849 199.29 145.412 202.259 147.151C204.003 148.186 205.485 149.5 206.621 151.018C207.756 152.536 208.521 154.228 208.873 155.996C208.969 156.616 210.077 156.662 210.07 155.996C210.022 152.621 207.567 149.298 204.673 147.076C201.636 144.74 197.539 143.77 193.483 143.632C189.362 143.427 185.275 144.367 181.855 146.307C178.216 148.483 176.007 151.817 174.632 155.319C172.722 159.865 172.432 164.78 173.798 169.462C173.842 169.567 173.933 169.654 174.051 169.705C174.169 169.757 174.306 169.769 174.434 169.739C174.562 169.709 174.672 169.64 174.742 169.545C174.811 169.45 174.836 169.336 174.81 169.227L174.837 169.221Z" fill="black"/>
<path d="M208.948 155.996C209.35 158.933 210.418 161.777 212.095 164.377C212.936 165.639 214.113 166.747 214.899 168.027C215.166 168.469 215.528 169.141 215.097 169.589C214.844 169.853 214.372 169.956 214.037 170.134C213.728 170.3 213.449 170.503 213.21 170.737C211.301 172.596 212.225 175.633 212.108 177.86C211.972 180.431 211.199 183.221 208.606 184.84C205.665 186.677 201.725 186.43 198.285 186.131C197.601 186.074 197.484 186.981 198.127 187.118C201.281 187.807 204.872 187.876 207.888 186.734C210.905 185.592 212.751 183.112 213.36 180.42C213.655 179.047 213.776 177.652 213.723 176.258C213.723 174.967 213.401 173.543 213.962 172.304C214.523 171.064 216.507 170.989 216.842 169.566C217.177 168.142 216 166.948 215.125 165.915C212.604 162.904 210.855 159.488 209.988 155.881C209.872 155.399 208.887 155.503 208.962 155.996H208.948Z" fill="black"/>
<path d="M208.045 162.764L207.82 162.861C207.707 162.914 207.601 162.978 207.505 163.051C207.336 163.166 207.198 163.311 207.102 163.475C207.042 163.57 206.996 163.67 206.965 163.774C206.946 163.853 206.935 163.934 206.931 164.015C206.937 164.096 206.951 164.177 206.972 164.256C207.018 164.478 207.153 164.68 207.355 164.83L207.519 164.933C207.604 164.98 207.704 165.006 207.806 165.008C207.978 165.03 208.153 165.003 208.305 164.933C208.362 164.905 208.414 164.873 208.463 164.836C208.519 164.808 208.572 164.775 208.62 164.738C208.748 164.616 208.846 164.473 208.907 164.319C208.954 164.212 208.977 164.1 208.976 163.986C208.974 163.903 208.963 163.82 208.941 163.739C208.908 163.591 208.825 163.453 208.702 163.343L208.538 163.24C208.429 163.184 208.305 163.151 208.177 163.145C208.049 163.139 207.922 163.16 207.806 163.206C207.709 163.238 207.62 163.287 207.546 163.349C207.472 163.411 207.414 163.485 207.375 163.567C207.324 163.665 207.301 163.772 207.309 163.878C207.316 163.985 207.353 164.089 207.416 164.181C207.42 164.191 207.42 164.201 207.416 164.21L207.334 164.044C207.353 164.078 207.364 164.115 207.368 164.153V163.969C207.372 164.005 207.372 164.042 207.368 164.078L207.402 163.9C207.393 163.937 207.382 163.973 207.368 164.009L207.444 163.848C207.43 163.882 207.409 163.913 207.382 163.94L207.505 163.808C207.479 163.838 207.449 163.865 207.416 163.889L207.573 163.785H208.36L208.517 163.883C208.482 163.861 208.45 163.836 208.422 163.808L208.545 163.94C208.52 163.911 208.497 163.88 208.476 163.848L208.558 163.998C208.525 163.93 208.504 163.858 208.497 163.785V163.952C208.486 163.893 208.486 163.833 208.497 163.774V163.929C208.511 163.864 208.532 163.801 208.558 163.739L208.49 163.877C208.592 163.705 208.714 163.542 208.853 163.389L208.907 163.28C208.928 163.222 208.928 163.16 208.907 163.102C208.898 163.006 208.847 162.916 208.764 162.85C208.68 162.781 208.572 162.738 208.456 162.725C208.34 162.713 208.222 162.732 208.121 162.781L208.045 162.764Z" fill="black"/>
<path d="M191.308 164.704C191.383 164.704 191.308 164.704 191.274 164.704H191.356H191.315H191.376C191.438 164.704 191.281 164.658 191.376 164.704L191.431 164.732C191.453 164.746 191.474 164.761 191.493 164.778L191.541 164.819C191.582 164.853 191.472 164.732 191.541 164.819C191.568 164.852 191.593 164.886 191.616 164.922C191.612 164.941 191.612 164.96 191.616 164.979C191.616 164.922 191.582 164.91 191.616 164.945V164.973C191.637 165.017 191.655 165.061 191.67 165.106C191.698 165.19 191.718 165.277 191.732 165.364C191.735 165.385 191.735 165.406 191.732 165.427C191.732 165.427 191.732 165.507 191.732 165.553C191.739 165.599 191.739 165.645 191.732 165.691C191.735 165.712 191.735 165.733 191.732 165.754C191.732 165.754 191.732 165.834 191.698 165.875V165.903C191.746 165.834 191.698 165.903 191.698 165.932L192.471 165.76C192.546 165.812 192.567 165.829 192.532 165.8C192.498 165.771 192.532 165.8 192.587 165.857C192.642 165.915 192.532 165.771 192.587 165.857C192.587 165.949 192.587 165.972 192.587 165.932V165.898C192.587 165.898 192.546 166.041 192.587 165.955C192.628 165.869 192.587 166.001 192.587 166.001V165.972C192.587 165.938 192.587 165.972 192.532 166.03C192.594 165.972 192.402 166.099 192.491 166.03C192.558 165.997 192.617 165.953 192.664 165.902C192.711 165.85 192.745 165.791 192.764 165.728C192.784 165.665 192.789 165.599 192.778 165.535C192.768 165.471 192.742 165.408 192.703 165.352C192.664 165.296 192.612 165.247 192.551 165.208C192.489 165.168 192.419 165.14 192.344 165.123C192.269 165.107 192.191 165.103 192.114 165.111C192.037 165.12 191.963 165.142 191.896 165.174C191.758 165.25 191.643 165.352 191.561 165.473C191.488 165.598 191.45 165.735 191.452 165.875C191.454 166.011 191.495 166.145 191.573 166.265C191.65 166.385 191.761 166.487 191.896 166.563C191.961 166.595 192.032 166.616 192.107 166.625C192.181 166.634 192.256 166.63 192.329 166.614C192.401 166.598 192.469 166.57 192.529 166.532C192.588 166.493 192.638 166.446 192.676 166.391C192.821 166.129 192.887 165.842 192.867 165.553C192.848 165.293 192.785 165.036 192.683 164.79C192.573 164.494 192.355 164.236 192.06 164.049C191.917 163.964 191.754 163.906 191.581 163.879C191.409 163.852 191.232 163.858 191.062 163.894C190.931 163.927 190.819 164 190.752 164.1C190.684 164.199 190.665 164.317 190.699 164.428C190.739 164.537 190.827 164.63 190.945 164.686C191.063 164.743 191.203 164.759 191.335 164.732L191.308 164.704Z" fill="black"/>
<path d="M204.598 158.998H204.666L204.311 158.872C204.625 159.148 205.132 159.021 205.521 158.975L206.424 158.861C207.047 158.78 207.676 158.723 208.292 158.608C208.381 158.589 208.465 158.555 208.539 158.508C208.612 158.46 208.673 158.401 208.719 158.334C208.764 158.266 208.793 158.191 208.803 158.114C208.813 158.037 208.804 157.959 208.777 157.885C208.754 157.81 208.714 157.74 208.658 157.679C208.602 157.618 208.533 157.567 208.453 157.529C208.373 157.491 208.285 157.467 208.194 157.458C208.103 157.449 208.01 157.456 207.922 157.477C207.314 157.552 206.712 157.684 206.11 157.799L205.221 157.959C204.892 158.023 204.386 158.063 204.229 158.361L204.53 158.166H204.468C204.354 158.193 204.254 158.254 204.189 158.337C204.124 158.42 204.097 158.521 204.112 158.62C204.128 158.718 204.185 158.809 204.275 158.875C204.364 158.941 204.479 158.976 204.598 158.975V158.998Z" fill="black"/>
<path d="M198.579 197.726C199.03 196.067 199.441 194.402 199.851 192.732C200.262 191.061 200.795 189.42 201.041 187.749C201.144 187.026 199.755 186.894 199.55 187.577C199.297 188.398 199.188 189.265 199.023 190.103C198.859 190.941 198.702 191.722 198.538 192.531C198.21 194.184 197.854 195.837 197.587 197.496C197.491 198.03 198.428 198.282 198.579 197.726Z" fill="black"/>
<path d="M176.602 190.339L197.553 193.605C199.502 193.909 201.828 194.506 202.259 196.125C202.341 196.832 202.32 197.545 202.197 198.249C202.136 200.889 204.933 202.841 207.129 204.723C212.457 209.315 215.337 215.629 215.843 222.041C216.349 228.452 214.687 234.835 211.883 240.788C210.296 244.151 205.966 256.59 205.446 260.189C204.762 264.781 206.5 269.666 204.297 273.89C202.211 277.908 197.101 280.204 192.04 281.197C178.503 283.907 160.206 283.534 148.777 276.864C145.836 275.142 142.888 273.167 141.526 270.389C140.022 267.324 140.719 263.788 142.169 260.7C143.619 257.612 145.781 254.799 147.306 251.74C152.026 242.269 156.766 217.874 161.581 208.431" fill="#C0392B"/>
<path d="M176.629 194.993C177.587 193.447 178.43 191.852 179.153 190.218C179.516 189.391 179.837 188.553 180.152 187.709C180.535 186.895 180.776 186.039 180.87 185.167C180.87 184.644 179.913 184.357 179.625 184.885C179.276 185.705 179.011 186.548 178.832 187.405C178.586 188.197 178.312 188.989 178.004 189.77C177.364 191.402 176.603 192.999 175.726 194.551C175.439 195.057 176.315 195.504 176.629 194.993Z" fill="black"/>
<path d="M206.37 174.106C206.433 174.195 206.531 174.262 206.648 174.295C206.764 174.329 206.891 174.327 207.006 174.289C207.071 174.262 207.129 174.224 207.177 174.177C207.224 174.131 207.26 174.077 207.283 174.019C207.306 173.961 207.315 173.9 207.31 173.839C207.304 173.778 207.285 173.718 207.252 173.664C207.219 173.609 207.174 173.56 207.119 173.52C207.063 173.48 206.999 173.45 206.93 173.431C206.861 173.412 206.788 173.404 206.715 173.408C206.643 173.413 206.572 173.429 206.506 173.457C206 173.687 206.103 174.284 206.178 174.68C206.252 175.028 206.4 175.363 206.616 175.667C206.855 176.014 207.191 176.307 207.594 176.522C207.727 176.588 207.884 176.61 208.036 176.584C208.187 176.559 208.322 176.488 208.415 176.384C208.512 176.284 208.561 176.156 208.552 176.027C208.543 175.897 208.477 175.775 208.367 175.684C208.185 175.556 208.016 175.416 207.861 175.265C207.82 175.231 207.786 175.185 207.744 175.15C207.703 175.116 207.82 175.236 207.744 175.179C207.729 175.155 207.71 175.132 207.69 175.11C207.622 175.025 207.56 174.937 207.505 174.846L207.43 174.72C207.478 174.823 207.396 174.662 207.43 174.72C207.382 174.616 207.43 174.674 207.43 174.657C207.388 174.559 207.354 174.459 207.327 174.358C207.327 174.312 207.327 174.261 207.293 174.209C207.259 174.157 207.293 174.307 207.293 174.238C207.29 174.215 207.29 174.192 207.293 174.169C207.293 174.123 207.293 174.071 207.293 174.02C207.293 173.968 207.252 173.778 207.293 173.887C207.334 173.997 207.293 173.933 207.293 173.887C207.293 173.767 207.218 173.859 207.088 174.169L206.821 174.226L206.561 174.163L206.479 174.111L206.349 173.922C206.383 173.997 206.383 173.922 206.349 173.755L206.472 173.572L206.691 173.468L207.074 173.509C206.98 173.465 206.871 173.447 206.764 173.458C206.657 173.47 206.557 173.509 206.479 173.572C206.405 173.637 206.358 173.719 206.345 173.808C206.331 173.897 206.352 173.987 206.404 174.065L206.37 174.106Z" fill="black"/>
<path d="M206.465 148.666C205.672 154.211 201.233 158.849 196.835 163.016C196.52 163.32 196.082 163.653 195.624 163.533C195.346 163.42 195.118 163.235 194.974 163.005C194.545 162.506 193.981 162.099 193.329 161.818C192.676 161.537 191.954 161.39 191.22 161.389C190.487 161.387 189.764 161.531 189.109 161.809C188.455 162.087 187.889 162.492 187.457 162.989C187.025 163.486 186.739 164.062 186.623 164.669C186.507 165.277 186.564 165.899 186.789 166.485C187.015 167.07 187.403 167.603 187.92 168.038C188.438 168.474 189.072 168.801 189.769 168.991C190.193 169.112 190.713 169.233 190.829 169.594C190.873 169.806 190.832 170.024 190.713 170.214C188.609 174.694 185.922 178.965 182.703 182.951C181.705 184.191 180.528 185.477 178.811 185.879C178.629 185.939 178.426 185.939 178.244 185.879C178.085 185.788 177.965 185.658 177.902 185.505L172.833 176.396C171.634 174.393 170.641 172.307 169.865 170.162C169.351 168.492 169.001 166.789 168.818 165.071C168.511 163.294 168.523 161.489 168.852 159.716C169.212 158.367 169.778 157.063 170.535 155.835C173.114 151.387 177.019 147.151 182.553 145.457C183.545 145.153 184.564 144.935 185.549 144.642C186.534 144.35 187.505 143.965 188.504 143.678C194.208 142.071 200.419 143.747 206.028 145.567C207.041 145.855 208.001 146.261 208.88 146.772C209.507 147.216 210.019 147.763 210.385 148.379C210.751 148.996 210.963 149.668 211.008 150.356C211.053 151.043 210.929 151.731 210.646 152.378C210.362 153.024 209.924 153.614 209.359 154.113C209.59 152.99 209.282 151.835 208.503 150.901C207.724 149.966 206.537 149.328 205.2 149.125" fill="black"/>
<path d="M205.939 148.545C205.207 152.793 202.368 156.483 199.208 159.755C198.394 160.605 197.546 161.431 196.691 162.246C196.363 162.562 196.007 163.119 195.61 162.717C195.284 162.368 194.915 162.049 194.509 161.764C193.695 161.229 192.713 160.904 191.683 160.828C190.653 160.752 189.618 160.928 188.705 161.335C187.792 161.742 187.038 162.362 186.536 163.121C186.034 163.88 185.805 164.744 185.877 165.61C185.972 166.465 186.347 167.282 186.96 167.97C187.573 168.657 188.401 169.19 189.352 169.508C189.502 169.553 189.974 169.622 190.036 169.731C190.097 169.84 189.913 170.231 189.817 170.414C189.523 170.988 189.242 171.562 188.948 172.096C188.41 173.141 187.836 174.17 187.224 175.184C185.984 177.256 184.614 179.272 183.12 181.223C182.476 182.129 181.756 182.996 180.966 183.817C180.607 184.189 180.194 184.521 179.735 184.805C179.529 184.922 179.314 185.027 179.092 185.12C178.965 185.173 178.832 185.216 178.695 185.247C178.415 185.287 178.736 185.384 178.579 185.247C178.421 185.109 178.237 184.632 178.114 184.414L177.696 183.657L176.711 181.883L174.885 178.594C173.674 176.43 172.382 174.272 171.383 172.027C170.417 169.739 169.803 167.357 169.557 164.938C169.256 162.528 169.228 160.209 170.241 157.907C171.13 156.013 172.278 154.212 173.661 152.54C174.943 150.911 176.508 149.452 178.305 148.212C180.21 146.995 182.374 146.093 184.68 145.554C186.048 145.199 187.334 144.688 188.681 144.303C189.973 143.945 191.317 143.738 192.676 143.689C195.463 143.652 198.237 144.007 200.884 144.739C202.197 145.072 203.49 145.457 204.776 145.859C206.039 146.183 207.242 146.657 208.346 147.265C209.09 147.783 209.646 148.464 209.954 149.233C210.263 150.001 210.31 150.826 210.091 151.616C209.899 152.387 209.443 153.093 208.777 153.648L210.091 154.285C210.372 152.988 210.038 151.649 209.16 150.556C208.282 149.462 206.93 148.699 205.392 148.43C204.338 148.264 203.921 149.647 204.954 149.768C205.52 149.838 206.063 150.002 206.553 150.251C207.042 150.499 207.468 150.827 207.805 151.215C208.143 151.602 208.385 152.043 208.518 152.51C208.65 152.977 208.671 153.461 208.579 153.935C208.541 154.073 208.556 154.218 208.623 154.348C208.69 154.478 208.805 154.587 208.951 154.659C209.096 154.731 209.266 154.762 209.434 154.747C209.602 154.732 209.76 154.673 209.885 154.578C210.606 153.941 211.141 153.173 211.449 152.333C211.756 151.494 211.827 150.606 211.657 149.739C211.487 148.873 211.079 148.051 210.467 147.339C209.854 146.627 209.054 146.044 208.128 145.635C205.503 144.573 202.751 143.748 199.92 143.172C197.078 142.477 194.102 142.25 191.157 142.507C189.749 142.666 188.37 142.974 187.053 143.425C185.624 143.907 184.188 144.286 182.731 144.699C180.422 145.363 178.296 146.409 176.479 147.776C174.619 149.192 173.008 150.821 171.691 152.615C170.223 154.489 169.072 156.525 168.271 158.665C167.443 161.11 167.737 163.67 168.107 166.127C168.461 168.692 169.239 171.203 170.419 173.589C171.609 175.965 172.97 178.278 174.27 180.609L176.322 184.271C176.759 185.057 177.156 186.527 178.456 186.527C179.577 186.527 180.747 185.769 181.506 185.138C182.38 184.353 183.154 183.495 183.818 182.577C185.454 180.496 186.947 178.338 188.292 176.114C188.976 174.966 189.618 173.818 190.22 172.67C190.501 172.142 190.774 171.608 191.014 171.069C191.336 170.58 191.487 170.025 191.452 169.467C191.205 168.514 189.885 168.492 189.064 168.055C188.536 167.768 188.093 167.383 187.77 166.929C187.448 166.475 187.254 165.965 187.204 165.438C187.179 164.929 187.294 164.422 187.541 163.956C187.788 163.491 188.159 163.079 188.627 162.754C189.094 162.429 189.645 162.199 190.236 162.082C190.827 161.965 191.442 161.965 192.033 162.08C192.608 162.197 193.147 162.416 193.613 162.723C194.099 163.044 194.365 163.515 194.831 163.836C195.857 164.542 196.883 163.802 197.567 163.136C201.103 159.738 204.584 156.116 206.185 151.736C206.55 150.713 206.804 149.664 206.944 148.602C207.013 148.092 205.959 147.965 205.87 148.476L205.939 148.545Z" fill="black"/>
<path d="M176.807 179.593C176.192 181.826 174.01 183.582 171.547 184.575C169.085 185.568 166.335 185.924 163.633 186.268L152.361 187.698C150.056 187.99 147.696 188.3 145.644 189.23C142.969 190.526 140.823 192.471 139.488 194.81C138.276 196.787 138.031 199.083 138.804 201.21C139.427 202.736 140.336 203.994 139.782 205.647C139.228 207.3 137.73 208.551 137.046 210.118C136.64 211.057 136.491 212.06 136.609 213.053C136.727 214.047 137.111 215.006 137.73 215.858C138.365 216.783 139.251 217.57 140.316 218.154C142.019 219.055 143.736 219.17 144.215 221.127C144.693 223.085 143.688 224.795 145.145 226.672C145.788 227.454 146.624 228.11 147.597 228.595C148.57 229.08 149.656 229.384 150.781 229.485C153.968 229.783 157.135 228.67 159.796 227.189C162.751 225.513 165.371 223.217 166.417 220.353C167.019 218.699 167.101 216.909 167.737 215.296C168.798 212.684 171.26 210.704 173.257 208.494C175.254 206.284 176.896 203.494 175.918 200.865C175.583 200.211 175.338 199.528 175.186 198.828C175.097 197.68 175.973 196.635 176.944 195.82C177.915 195.005 179.044 194.287 179.68 193.271C180.795 191.549 180.261 189.42 180.405 187.451C180.502 186.119 180.923 184.818 181.643 183.628" fill="black"/>
<path d="M176.219 179.455C174.673 184.386 167.621 185.126 162.587 185.723L153.12 186.871C150.275 187.204 147.334 187.497 144.81 188.737C140.295 190.941 136.738 195.567 137.491 200.044C137.776 201.155 138.178 202.243 138.695 203.293C138.918 203.839 138.997 204.42 138.925 204.994C138.853 205.568 138.632 206.122 138.277 206.617C137.655 207.598 136.848 208.488 136.308 209.487C135.776 210.497 135.541 211.599 135.624 212.701C135.706 213.825 136.068 214.922 136.688 215.921C137.308 216.919 138.171 217.798 139.221 218.499C140.097 218.986 141.011 219.423 141.957 219.807C142.411 220.02 142.786 220.334 143.041 220.713C143.297 221.093 143.424 221.524 143.407 221.96C143.483 223.022 143.284 224.089 143.476 225.151C143.69 226.204 144.271 227.181 145.145 227.958C146.006 228.727 147.047 229.338 148.203 229.753C149.359 230.168 150.605 230.377 151.862 230.369C157.101 230.369 162.375 227.344 165.384 223.906C167.053 222.006 167.655 219.916 168.12 217.638C168.327 216.438 168.766 215.274 169.42 214.193C170.069 213.226 170.825 212.311 171.677 211.461C173.408 209.67 175.275 207.96 176.376 205.813C176.91 204.821 177.218 203.754 177.286 202.668C177.237 201.54 176.952 200.429 176.445 199.384C175.596 197.117 179.071 195.693 180.371 194.098C181.992 192.106 181.363 189.678 181.54 187.434C181.64 186.264 182.014 185.123 182.642 184.076C183.264 183.025 181.383 182.101 180.768 183.152C179.523 185.281 179.352 187.382 179.4 189.712C179.529 190.807 179.307 191.911 178.757 192.91C178.141 193.811 177.108 194.448 176.246 195.206C175.297 195.935 174.616 196.877 174.283 197.921C174.003 199.069 174.57 200.021 174.967 201.101C175.754 203.236 174.584 205.44 173.189 207.202C171.793 208.964 169.878 210.566 168.449 212.368C167.753 213.244 167.199 214.194 166.8 215.192C166.423 216.359 166.131 217.543 165.925 218.74C164.94 223.022 160.829 226.339 156.116 227.958C153.743 228.773 150.972 229.106 148.592 228.096C147.455 227.654 146.502 226.936 145.856 226.035C145.241 225.111 145.316 224.106 145.357 223.091C145.425 221.173 145.035 219.371 142.908 218.361C141.948 217.991 141.031 217.545 140.172 217.029C139.18 216.309 138.429 215.385 137.99 214.348C137.542 213.326 137.447 212.217 137.717 211.151C138.093 210.11 138.673 209.128 139.433 208.247C140.139 207.379 140.636 206.404 140.897 205.377C141.049 204.28 140.846 203.17 140.309 202.162C139.771 201.152 139.452 200.069 139.365 198.965C139.349 197.809 139.621 196.664 140.165 195.602C141.187 193.585 142.841 191.839 144.953 190.55C147.258 189.173 150.015 188.8 152.751 188.432L161.841 187.198C166.834 186.515 172.628 186.01 175.904 182.348C176.601 181.573 177.1 180.686 177.368 179.742C177.4 179.615 177.373 179.483 177.293 179.372C177.213 179.261 177.086 179.18 176.937 179.145C176.788 179.11 176.629 179.124 176.492 179.183C176.355 179.243 176.25 179.344 176.198 179.466L176.219 179.455Z" fill="black"/>
<path d="M173.544 182.916C173.833 182.626 174.2 182.398 174.616 182.251C175.031 182.104 175.482 182.043 175.932 182.073C177.067 182.163 178.165 182.456 179.153 182.934C180.04 183.242 180.81 183.746 181.383 184.392C181.594 184.648 181.73 184.943 181.78 185.253C181.81 185.41 181.798 185.57 181.746 185.723C181.637 185.909 181.543 186.101 181.465 186.297C181.435 186.394 181.436 186.496 181.467 186.593C181.498 186.689 181.559 186.777 181.643 186.848C181.728 186.919 181.833 186.97 181.948 186.996C182.063 187.022 182.184 187.023 182.3 186.998C182.984 186.9 183.442 186.137 183.668 185.643C183.88 185.083 183.88 184.481 183.668 183.921C183.162 182.647 181.828 181.837 180.439 181.28C178.953 180.607 177.247 180.355 175.576 180.563C174.914 180.666 174.293 180.907 173.77 181.263C173.247 181.619 172.838 182.078 172.58 182.601C172.347 183.112 173.264 183.335 173.572 182.951L173.544 182.916Z" fill="#18C4FF"/>
<path d="M159.146 266.491C166.975 265.548 174.949 265.939 182.594 267.639C187.608 268.747 192.621 270.475 196.623 273.787C201.486 277.805 197.751 283.717 200.385 289.56C224.325 342.615 242.697 401.404 242.519 459.958C242.451 482.459 240.659 504.914 240.07 527.403C239.961 531.536 240.221 536.369 243.49 538.734C245.146 539.933 244.503 540.209 246.349 541.064C248.196 541.92 249.92 543.877 249.38 545.892C248.737 548.245 245.761 548.698 243.401 548.698H227.751C224.571 548.698 221.055 548.566 218.723 546.322C217.026 544.686 216.329 542.258 215.699 539.951C204.872 500.345 193.948 459.998 194.967 418.837C195.179 410.296 195.891 401.577 193.647 393.351C190.911 383.381 184.181 375.23 178.804 366.488C169.372 351.168 163.9 333.253 163.113 315.098C162.429 298.779 165.323 281.892 160.282 266.411L159.769 270.67" fill="black"/>
<path d="M159.283 266.91C165.84 266.152 172.502 266.329 178.989 267.432C184.646 268.408 190.405 269.981 194.858 273.172C195.937 273.886 196.823 274.784 197.456 275.808C198.09 276.831 198.456 277.956 198.531 279.107C198.709 281.156 198.456 283.211 198.593 285.26C198.816 287.451 199.446 289.599 200.46 291.626C201.541 294.041 202.605 296.463 203.654 298.893C212.11 318.312 219.399 338.075 225.494 358.107C231.735 378.504 236.274 399.241 239.079 420.168C241.815 441.457 241.951 462.736 241.076 484.111C240.624 495.075 240.016 506.027 239.578 516.984C239.386 521.955 238.784 527.098 239.393 532.057C239.534 533.914 240.132 535.726 241.151 537.378C241.625 538.057 242.215 538.674 242.902 539.21C243.531 539.726 243.996 540.358 244.612 540.851C245.392 541.523 246.479 541.844 247.266 542.521C248.388 543.492 249.079 544.99 248.333 546.275C247.252 548.135 244.229 547.997 242.136 547.997C236.787 547.997 231.404 548.158 226.069 547.997C223.148 547.9 220.296 547.291 218.641 545.093C217.108 543.061 216.657 540.501 216.028 538.176C214.605 532.972 213.198 527.764 211.807 522.552C206.212 501.515 201.082 480.346 198.203 458.907C196.735 448.234 195.927 437.505 195.781 426.763C195.672 416.374 197.149 405.76 195.056 395.468C193.08 385.917 187.06 377.674 181.602 369.3C175.995 360.712 171.669 351.578 168.722 342.104C165.689 332.229 164.082 322.085 163.934 311.888C163.75 301.487 164.741 291.069 163.934 280.674C163.599 275.775 162.683 270.916 161.198 266.169C161.136 266.003 161.005 265.86 160.83 265.766C160.654 265.672 160.445 265.634 160.238 265.657C160.032 265.68 159.842 265.764 159.703 265.894C159.563 266.023 159.482 266.19 159.475 266.364C159.31 267.782 159.16 269.206 158.989 270.623C158.88 271.542 160.596 271.536 160.706 270.623C160.879 269.2 161.055 267.78 161.232 266.364L159.509 266.565C162.799 277.029 162.642 287.878 162.368 298.617C162.101 309.07 162.087 319.431 163.975 329.791C165.771 339.757 169.024 349.498 173.661 358.796C178.291 368.031 185.179 376.308 189.783 385.538C192.217 390.42 193.698 395.599 194.167 400.876C194.66 406.214 194.393 411.575 194.235 416.948C193.923 428.057 194.368 439.173 195.569 450.24C197.902 472.126 202.758 493.76 208.319 515.211C209.687 520.526 211.103 525.833 212.567 531.133C213.305 533.869 214.051 536.604 214.803 539.336C215.398 541.517 215.918 543.842 217.355 545.77C220.2 549.582 225.563 549.364 230.303 549.375H238.23C240.665 549.375 243.224 549.587 245.631 549.243C250.002 548.617 251.787 544.898 248.914 541.93C248.18 541.257 247.332 540.676 246.397 540.208C245.631 539.761 245.207 539.06 244.551 538.515C242.775 537.069 241.631 535.165 241.302 533.108C240.95 530.834 240.852 528.538 241.007 526.249C241.089 523.436 241.185 520.625 241.295 517.817C241.52 512.077 241.794 506.388 242.068 500.677C243.141 478.429 244.256 456.169 242.341 433.926C240.389 412.538 236.522 391.303 230.775 370.402C225.075 349.561 217.996 329.003 209.571 308.823C207.546 303.921 205.458 299.04 203.305 294.18C202.259 291.81 200.843 289.399 200.35 286.891C199.913 284.658 200.132 282.396 200.049 280.14C199.981 278.281 199.66 276.363 198.456 274.756C197.156 273.034 194.988 271.697 192.95 270.618C188.114 268.069 182.354 266.801 176.759 266.083C170.863 265.351 164.871 265.351 158.975 266.083C158.291 266.163 158.592 267.019 159.256 266.944L159.283 266.91Z" fill="black"/>
<path d="M182.628 267.616C162.826 263.718 150.206 264.746 146 269.791C142.983 273.396 139.064 276.972 137.354 281.168C130.425 298.107 126.075 315.608 122.08 333.178C119.96 342.488 118.134 351.856 115.548 361.092C114.841 363.606 114.08 366.11 113.264 368.605C111.123 375.092 109.084 381.658 105.5 387.68C101.827 393.85 96.6082 399.286 91.2661 404.503C77.1689 418.193 57.3808 441.67 46.1221 457.105C40.6501 464.63 36.2315 472.804 29.2752 479.41C23.8032 484.628 16.2792 489.943 17.1889 496.854C17.572 499.724 19.4188 502.25 21.4092 504.58C25.3045 509.125 29.9051 513.214 35.0892 516.738C37.9483 518.684 44.761 521.967 45.0482 517.048C45.4176 510.785 45.7322 504.529 46.3273 498.284C46.4026 497.509 51.1906 495.15 52.0319 494.598C54.2708 493.141 56.5007 491.673 58.7214 490.196C88.6943 470.226 120.569 441.882 140.412 414.106C149.666 401.151 157.272 387.301 161.971 372.698C166.321 359.192 168.811 345.318 170.651 331.422C171.082 328.11 171.479 324.804 171.869 321.492C172.99 311.912 173.921 302.199 172.047 292.694C171.581 290.277 170.295 287.373 167.395 287.126" fill="black"/>
<path d="M182.758 267.123C173.387 265.24 162.717 263.352 153.141 265.401C150.405 265.975 147.669 267.031 145.788 268.896C144.269 270.435 142.901 272.128 141.485 273.735C139.733 275.622 138.252 277.676 137.074 279.854C135.822 282.351 134.94 285.02 133.989 287.592C133.038 290.163 132.074 292.941 131.191 295.628C129.426 301.006 127.853 306.43 126.403 311.878C123.448 322.956 121.02 334.126 118.551 345.284C116.082 356.443 113.209 367.389 109.098 378.123C107.195 383.284 104.478 388.209 101.02 392.766C97.6478 397.105 93.6533 401.031 89.6587 404.969C75.8009 418.607 63.3589 433.382 51.6967 448.386C48.9607 451.87 46.3068 455.383 43.8034 458.982C40.7596 463.356 37.9688 467.862 34.6993 472.127C31.5392 476.248 27.7088 479.738 23.81 483.36C20.5542 486.402 17.1684 489.852 16.416 494.025C15.5747 498.812 18.769 502.888 22.0795 506.521C25.7274 510.556 29.9597 514.195 34.6788 517.352C36.8744 518.805 40.4791 520.917 43.4614 520.188C44.9251 519.826 45.6023 518.695 45.787 517.502C46.2042 514.758 46.129 511.905 46.3 509.144C46.4846 506.177 46.6898 503.215 46.9361 500.253C47.0113 499.369 46.813 498.577 47.6201 497.957C48.3541 497.438 49.1313 496.965 49.9457 496.539C54.2002 494.157 58.1537 491.425 62.1277 488.715C71.5464 482.298 80.5957 475.473 89.2141 468.327C106.766 453.828 122.99 437.98 136.444 420.639C143.282 411.889 149.231 402.673 154.228 393.087C159.248 383.247 163.097 373.014 165.72 362.539C168.436 351.538 170.468 340.425 171.807 329.247C173.244 318.094 175.001 306.717 173.469 295.507C173.031 292.293 172.477 286.931 167.614 286.323C166.431 286.174 165.918 287.695 167.115 287.85C169.605 288.166 170.473 290.427 170.932 292.235C171.53 294.887 171.883 297.574 171.985 300.271C172.238 305.727 172.053 311.19 171.431 316.624C170.343 327.53 168.969 338.5 166.917 349.342C164.912 359.944 162.258 370.523 158.161 380.706C154.164 390.537 149.073 400.031 142.956 409.061C131.232 426.54 116.314 442.445 100.049 457.088C91.8407 464.47 83.261 471.526 74.3098 478.257C70.0279 481.472 65.6594 484.602 61.2043 487.648C57.2645 490.323 53.352 493.032 49.1386 495.362C48.051 495.971 46.3205 496.717 45.7186 497.733C45.274 498.439 45.4176 499.455 45.356 500.23C45.2261 501.711 45.1166 503.192 45.0072 504.673C44.8088 507.474 44.6378 510.269 44.4737 513.07C44.3984 514.385 44.3984 515.716 44.248 517.025C44.159 517.76 44.0017 518.575 43.0578 518.85C41.594 519.275 39.5899 518.334 38.3656 517.754C36.536 516.831 34.8279 515.747 33.2698 514.522C28.6832 511.189 24.6278 507.373 21.204 503.169C19.5214 501.062 18.0371 498.72 17.914 496.132C17.8641 494.03 18.503 491.957 19.7608 490.139C22.2368 486.345 26.1356 483.371 29.5351 480.174C37.1344 473.034 41.8471 464.177 47.7979 456.101C58.8001 441.235 70.8056 426.91 83.7558 413.194C90.3906 406.157 97.9693 399.648 103.592 391.956C110.015 383.117 113.038 372.658 115.904 362.682C119.016 351.914 121.068 340.956 123.578 330.05C126.034 319.397 128.667 308.772 131.991 298.285C133.647 293.039 135.48 287.833 137.532 282.69C138.452 280.347 139.759 278.125 141.417 276.089C142.99 274.154 144.748 272.335 146.376 270.435C150.521 265.59 159.31 265.648 165.658 265.969C171.308 266.299 176.916 267.011 182.43 268.099C183.203 268.248 183.531 267.26 182.758 267.106V267.123Z" fill="black"/>
<path d="M43.0373 460.508C53.2973 462.345 63.441 466.61 68.27 474.818C69.4873 476.961 70.2754 479.257 70.6025 481.614C70.7393 482.406 72.2851 482.188 72.2646 481.425C72.121 477.028 69.5902 472.734 66.2933 469.411C62.6445 465.865 57.9786 463.159 52.7364 461.547C49.7108 460.585 46.5647 459.915 43.3588 459.55C42.62 459.464 42.278 460.371 43.0373 460.508Z" fill="#18C4FF"/>
<path d="M49.7063 494.213C49.7884 494.409 49.8636 494.604 49.9252 494.787C49.959 494.886 49.9864 494.985 50.0072 495.086V495.241C50.0072 495.241 50.0072 495.419 50.0072 495.31V495.528C50.0106 495.557 50.0106 495.585 50.0072 495.614V495.924C50.0243 496.13 50.0243 496.337 50.0072 496.544C50.0234 496.674 50.0964 496.794 50.2119 496.881C50.3275 496.969 50.4775 497.017 50.6331 497.017C50.7886 497.017 50.9387 496.969 51.0543 496.881C51.1698 496.794 51.2428 496.674 51.259 496.544C51.2663 496.078 51.2043 495.613 51.0743 495.161C50.934 494.716 50.7344 494.287 50.4792 493.881C50.418 493.796 50.3231 493.733 50.2114 493.703C50.0998 493.672 49.9789 493.676 49.8704 493.714C49.7611 493.751 49.672 493.821 49.6203 493.91C49.5685 493.999 49.5577 494.101 49.59 494.196L49.7063 494.213Z" fill="#18C4FF"/>
<path d="M53.5777 490.862C53.5231 490.93 53.4854 491.007 53.4666 491.088C53.4478 491.169 53.4484 491.252 53.4683 491.332L53.5162 491.459C53.5567 491.56 53.5909 491.664 53.6188 491.769C53.6872 491.97 53.7419 492.182 53.7966 492.389C53.8594 492.594 53.9051 492.803 53.9334 493.014C53.9334 492.859 53.9334 493.014 53.9334 493.043C53.9334 493.072 53.9334 493.163 53.9334 493.221C53.9334 493.278 53.9334 493.433 53.9334 493.537C53.9324 493.678 53.994 493.816 54.1064 493.922C54.2189 494.028 54.3741 494.095 54.5422 494.111C54.6311 494.133 54.7245 494.14 54.8168 494.131C54.9091 494.122 54.9983 494.098 55.0789 494.059C55.1596 494.021 55.23 493.969 55.2859 493.906C55.3418 493.844 55.3819 493.773 55.404 493.697L55.5271 493.238C55.5779 493.086 55.5546 492.923 55.4622 492.785C55.3698 492.647 55.216 492.546 55.0346 492.503C54.8532 492.461 54.6591 492.48 54.4949 492.558C54.3307 492.635 54.2099 492.764 54.1591 492.917L54.0497 493.382L55.4177 493.537C55.3726 493.054 55.2788 492.576 55.1372 492.107C55.0684 491.895 54.9838 491.686 54.8842 491.482C54.8226 491.355 54.761 491.229 54.6926 491.103C54.6672 491.046 54.6375 490.99 54.6037 490.936C54.495 490.805 54.3314 490.713 54.1454 490.678C54.0429 490.654 53.9337 490.659 53.8348 490.692C53.736 490.725 53.6528 490.785 53.5982 490.862H53.5777Z" fill="#18C4FF"/>
<path d="M57.9964 488.003C58.1263 488.577 58.3862 489.111 58.5162 489.679C58.5162 489.823 58.5778 489.966 58.6051 490.11C58.6081 490.142 58.6081 490.175 58.6051 490.207V490.454C58.6051 490.776 58.6598 491.091 58.7146 491.407C58.7625 491.533 58.8609 491.641 58.993 491.713C59.1251 491.786 59.2829 491.817 59.4396 491.803C59.5945 491.781 59.7355 491.714 59.8388 491.615C59.9422 491.516 60.0017 491.39 60.0073 491.258C60.0255 490.627 59.9263 489.997 59.7132 489.392C59.5741 488.783 59.3053 488.2 58.9198 487.67C58.8528 487.579 58.7493 487.512 58.628 487.479C58.5067 487.447 58.3756 487.452 58.2583 487.493C58.141 487.535 58.0453 487.61 57.9885 487.706C57.9317 487.802 57.9175 487.911 57.9485 488.015L57.9964 488.003Z" fill="#18C4FF"/>
<path d="M63.9266 484.806C64.5408 485.974 64.7768 487.257 64.6106 488.525C64.6106 488.678 64.6827 488.824 64.811 488.931C64.9393 489.039 65.1132 489.099 65.2946 489.099C65.476 489.099 65.65 489.039 65.7783 488.931C65.9066 488.824 65.9786 488.678 65.9786 488.525C66.0872 487.071 65.7056 485.621 64.8774 484.341C64.8033 484.237 64.684 484.162 64.5448 484.131C64.4056 484.1 64.2575 484.115 64.1318 484.174C64.0092 484.239 63.9204 484.34 63.8835 484.457C63.8466 484.574 63.8645 484.699 63.9335 484.806H63.9266Z" fill="#18C4FF"/>
<path d="M207.505 512.277C218.524 511.33 229.516 510.216 240.508 509.12C241.5 509.022 241.507 507.702 240.508 507.806C229.455 508.954 218.401 510.102 207.368 511.41C206.787 511.479 206.917 512.329 207.505 512.277Z" fill="#18C4FF"/>
<path d="M239.4 518.843H239.68C239.802 518.839 239.924 518.825 240.043 518.803H240.125H240.084H240.207H240.474C240.838 518.783 241.204 518.783 241.568 518.803C241.75 518.803 241.924 518.743 242.052 518.635C242.18 518.527 242.252 518.382 242.252 518.229C242.252 518.077 242.18 517.931 242.052 517.823C241.924 517.716 241.75 517.655 241.568 517.655C241.144 517.672 240.721 517.713 240.303 517.776C240.125 517.776 239.94 517.833 239.763 517.868C239.544 517.918 239.335 517.994 239.14 518.091C239.047 518.139 238.974 518.21 238.932 518.295C238.89 518.38 238.882 518.473 238.908 518.562C238.939 518.65 239.003 518.728 239.09 518.783C239.178 518.839 239.284 518.87 239.393 518.872L239.4 518.843Z" fill="#18C4FF"/>
<path d="M238.996 523.327C239.192 523.339 239.389 523.339 239.585 523.327L240.146 523.27L241.302 523.155C241.485 523.148 241.659 523.087 241.794 522.983C241.87 522.919 241.927 522.841 241.96 522.755C241.993 522.669 242.002 522.578 241.986 522.489C241.974 522.407 241.94 522.327 241.888 522.257C241.836 522.186 241.766 522.125 241.684 522.08C241.601 522.034 241.508 522.004 241.41 521.991C241.312 521.978 241.212 521.984 241.117 522.007L239.981 522.236L239.4 522.34C239.207 522.382 239.017 522.436 238.832 522.501C238.709 522.525 238.602 522.586 238.53 522.673C238.459 522.761 238.429 522.867 238.446 522.972C238.463 523.077 238.526 523.172 238.623 523.24C238.72 523.308 238.843 523.343 238.969 523.339L238.996 523.327Z" fill="#18C4FF"/>
<path d="M238.901 528.28C239.277 528.228 239.639 528.102 240.009 528.022C240.193 527.987 240.371 527.953 240.556 527.93H240.693L241.151 527.878H240.966L241.288 527.844C241.474 527.843 241.653 527.781 241.787 527.672C241.853 527.617 241.906 527.552 241.941 527.48C241.976 527.408 241.994 527.331 241.992 527.253C241.992 527.1 241.92 526.954 241.792 526.847C241.664 526.739 241.49 526.679 241.308 526.679C240.8 526.715 240.297 526.798 239.81 526.926C239.585 526.983 239.373 527.052 239.126 527.126L238.723 527.27C238.586 527.335 238.457 527.412 238.34 527.5C238.252 527.574 238.196 527.67 238.18 527.774C238.163 527.878 238.189 527.983 238.251 528.074C238.317 528.162 238.415 528.23 238.531 528.269C238.646 528.308 238.773 528.316 238.894 528.292L238.901 528.28Z" fill="#18C4FF"/>
<path d="M240.351 532.098C240.292 532.013 240.203 531.947 240.095 531.909C239.988 531.87 239.869 531.862 239.756 531.886C239.617 531.92 239.5 531.998 239.427 532.104C239.359 532.211 239.334 532.335 239.355 532.455C239.375 532.576 239.442 532.688 239.544 532.775C239.711 532.884 239.91 532.954 240.12 532.978C240.33 533.003 240.544 532.98 240.741 532.913C241.034 532.839 241.307 532.716 241.542 532.551C241.777 532.387 241.97 532.184 242.109 531.954C242.171 531.858 242.204 531.749 242.204 531.639V531.478C242.177 531.386 242.124 531.302 242.049 531.232C241.974 531.162 241.879 531.108 241.773 531.076C241.684 531.042 241.588 531.024 241.49 531.024C241.392 531.024 241.295 531.042 241.206 531.076C241.115 531.102 241.033 531.145 240.966 531.202C240.875 531.278 240.811 531.373 240.782 531.478V531.512L240.857 531.363C240.808 531.454 240.749 531.541 240.679 531.621L240.768 531.524C240.686 531.615 240.59 531.696 240.481 531.765L240.631 531.667C240.522 531.737 240.402 531.795 240.276 531.84L240.447 531.782C240.338 531.818 240.226 531.845 240.111 531.863C239.958 531.885 239.809 531.93 239.674 531.995L239.817 531.943H239.975H240.132L240.269 531.989L240.378 532.058L240.46 532.15L240.515 532.259V532.488L240.378 532.683L240.276 532.752L240.152 532.798C240.226 532.781 240.295 532.749 240.352 532.706C240.409 532.663 240.454 532.61 240.483 532.55C240.512 532.49 240.524 532.426 240.519 532.361C240.514 532.297 240.492 532.234 240.453 532.178L240.351 532.098Z" fill="#18C4FF"/>
<path d="M194.872 200.366C199.372 198.305 204.974 199.654 209.625 201.462C219.263 205.222 227.806 210.784 237.587 214.251C240.925 215.433 244.386 216.363 247.765 217.454C248.546 217.67 249.28 217.99 249.94 218.401C251.137 219.222 251.671 220.525 252.068 221.776C254.153 228.408 253.997 235.396 251.616 241.958C250.46 245.132 248.463 248.45 244.81 249.718C243.423 250.183 241.911 250.319 240.438 250.111C238.966 249.904 237.589 249.361 236.459 248.542C234.557 247.112 233.114 244.776 230.563 244.747C229.58 244.834 228.614 245.027 227.69 245.321C225.207 245.838 222.539 245.189 220.398 244.024C218.314 242.78 216.469 241.276 214.926 239.564C213.955 238.571 212.874 237.503 211.356 237.308C210.337 237.171 209.304 237.469 208.278 237.526C205.2 237.687 202.375 235.472 201.835 232.934C201.636 231.993 201.691 231 201.26 230.116C200.241 227.992 196.958 227.304 195.405 225.415C194.632 224.479 194.352 223.331 193.859 222.27C193.367 221.208 192.491 220.146 191.192 219.87" fill="#C0392B"/>
<path d="M215.385 239.295C214.735 238.47 213.923 237.744 212.984 237.148C211.866 236.604 210.543 236.437 209.283 236.683C208.022 236.897 206.71 236.722 205.59 236.189C204.593 235.69 203.782 234.966 203.251 234.1C202.649 233.13 202.642 232.079 202.45 231.018C202.301 230.043 201.799 229.129 201.014 228.4C199.53 227.034 197.177 226.397 196 224.784C195.214 223.699 195.056 222.385 194.318 221.282C194.018 220.791 193.602 220.355 193.095 220.003C192.588 219.651 192.001 219.389 191.37 219.233C191.198 219.213 191.024 219.246 190.878 219.325C190.733 219.405 190.627 219.525 190.58 219.665C190.532 219.805 190.547 219.954 190.62 220.086C190.694 220.218 190.821 220.322 190.98 220.381C192.129 220.703 192.676 221.759 193.073 222.631C193.436 223.713 193.958 224.752 194.625 225.725C195.863 227.235 197.936 227.918 199.454 229.169C201.212 230.633 200.576 232.877 201.595 234.657C202.069 235.514 202.769 236.27 203.642 236.867C204.516 237.464 205.54 237.886 206.636 238.101C208.114 238.336 209.427 237.906 210.884 237.906C212.341 237.906 213.572 238.95 214.53 239.846C214.94 240.224 215.768 239.708 215.385 239.272V239.295Z" fill="black"/>
<path d="M194.201 201.767C192.833 201.411 192.149 202.806 191.698 203.627C191.024 204.837 190.504 206.103 190.145 207.404C189.444 209.988 189.328 212.659 189.803 215.279C189.926 215.979 191.171 215.681 191.075 214.98C190.69 212.821 190.736 210.623 191.212 208.477C191.449 207.433 191.776 206.405 192.19 205.4C192.409 204.872 192.655 204.344 192.929 203.833C193.127 203.449 193.428 202.588 194.064 202.634C194.701 202.68 194.748 201.91 194.201 201.767Z" fill="white"/>
<path d="M202.649 201.538C201.438 203.374 200.282 205.292 200.597 207.456C200.911 209.62 202.238 211.474 202.279 213.615C202.324 214.102 202.249 214.591 202.06 215.053C201.87 215.515 201.57 215.94 201.178 216.301C200.494 216.875 199.66 217.305 199.413 218.149C199.126 219.131 199.673 220.17 199.509 221.18C199.329 222.241 198.766 223.231 197.895 224.015C197.327 224.532 198.251 225.313 198.818 224.79C199.587 224.097 200.16 223.268 200.495 222.364C200.83 221.46 200.919 220.504 200.754 219.567C200.638 218.924 200.46 218.356 201.034 217.845C201.37 217.535 201.794 217.271 202.136 216.984C202.84 216.338 203.285 215.523 203.408 214.654C203.764 212.604 202.724 210.739 202.081 208.81C201.649 207.698 201.571 206.511 201.855 205.366C202.256 204.188 202.84 203.059 203.593 202.008C203.921 201.503 203.011 201.055 202.676 201.561L202.649 201.538Z" fill="white"/>
<path d="M214.154 205.635C215.221 206.588 214.626 208.023 214.01 209.034C213.394 210.044 212.58 211.14 212.512 212.374C212.444 213.608 213.442 215.055 212.779 216.318C212.286 217.259 211.288 217.948 210.87 218.935C210.385 220.083 211.069 221.151 211.404 222.264C211.753 223.452 211.889 224.676 211.807 225.898C211.723 227.118 211.426 228.32 210.925 229.468C210.419 230.65 209.557 231.592 208.873 232.694C208.82 232.809 208.813 232.936 208.852 233.055C208.892 233.175 208.977 233.28 209.094 233.356C209.211 233.431 209.354 233.473 209.501 233.475C209.649 233.476 209.793 233.438 209.913 233.365C211.527 232.097 212.437 229.83 212.874 228.062C213.367 226.116 213.346 224.104 212.813 222.167C212.539 221.208 211.746 220.117 212.266 219.147C212.69 218.332 213.511 217.707 213.969 216.903C214.417 216.008 214.486 215.012 214.167 214.079C213.982 213.517 213.872 212.939 213.839 212.357C213.891 211.756 214.088 211.17 214.42 210.635C215.351 208.913 216.842 206.663 214.879 205.021C214.4 204.619 213.682 205.228 214.14 205.641L214.154 205.635Z" fill="white"/>
<path d="M227.088 211.232C227.443 211.761 227.662 212.346 227.731 212.95C227.801 213.554 227.719 214.163 227.492 214.739C227.047 215.813 226.199 216.72 226.035 217.879C225.734 219.951 227.197 221.776 227.334 223.803C227.409 225.043 226.596 225.863 226.007 226.931C225.463 227.977 225.148 229.097 225.077 230.237C224.851 232.619 225.364 235.202 224.065 237.424C223.748 237.994 223.3 238.505 222.745 238.928C222.286 239.266 221.527 239.461 221.274 239.955C221.161 240.141 221.14 240.357 221.216 240.555C221.292 240.754 221.46 240.919 221.681 241.014C221.902 241.109 222.16 241.127 222.396 241.063C222.633 240.999 222.83 240.858 222.943 240.673C223.022 240.553 223.054 240.416 223.033 240.281C223.012 240.145 222.939 240.019 222.827 239.921L222.765 239.863C222.197 239.375 221.103 240.035 221.609 240.615L221.657 240.673L221.773 239.921L222.02 239.817L222.704 240.139L222.642 240.058L222.717 240.558C222.765 240.414 223.675 240.012 223.873 239.863C224.301 239.534 224.676 239.16 224.988 238.75C225.646 237.876 226.086 236.9 226.281 235.88C226.767 233.584 226.281 231.207 226.821 228.923C227.095 227.775 227.82 226.891 228.367 225.84C228.784 224.978 228.894 224.033 228.682 223.12C228.319 221.243 226.842 219.297 227.519 217.38C227.922 216.232 228.757 215.302 228.921 214.096C229.063 212.941 228.758 211.778 228.052 210.779C227.974 210.683 227.856 210.617 227.722 210.591C227.587 210.566 227.447 210.584 227.327 210.642C227.208 210.7 227.12 210.794 227.079 210.904C227.038 211.014 227.049 211.134 227.109 211.238L227.088 211.232Z" fill="white"/>
<path d="M241.869 217.483C242.998 217.93 242.827 219.813 242.772 220.697C242.698 221.984 242.321 223.246 241.664 224.411C241.076 225.45 240.152 226.414 240.057 227.602C240.038 228.113 240.131 228.623 240.33 229.106C240.616 229.632 240.758 230.204 240.747 230.782C240.57 231.655 239.325 232.097 239.058 232.992C238.969 233.585 239.101 234.186 239.434 234.714C239.649 235.204 239.809 235.709 239.913 236.224C240.136 237.37 240.073 238.543 239.728 239.668C239.317 240.752 238.735 241.784 237.998 242.739C237.912 242.867 237.884 243.018 237.919 243.163C237.954 243.307 238.051 243.437 238.19 243.526C238.33 243.616 238.503 243.661 238.679 243.652C238.855 243.644 239.021 243.582 239.147 243.479C240.679 242.188 241.384 240.035 241.548 238.313C241.632 237.351 241.544 236.384 241.288 235.443C241.166 235.007 241.006 234.579 240.809 234.163C240.529 233.543 240.453 233.227 240.98 232.722C241.609 232.148 242.211 231.574 242.273 230.753C242.334 229.766 241.637 228.922 241.52 227.97C241.384 226.856 242.41 225.846 242.929 224.876C243.98 222.908 244.325 220.726 243.921 218.596C243.771 217.781 243.36 216.834 242.266 216.679C241.739 216.61 241.295 217.253 241.869 217.471V217.483Z" fill="white"/>
<path d="M180.337 198.156C182.21 197.663 184.191 197.522 186.137 197.744C188.083 197.966 189.947 198.546 191.595 199.442C192.279 199.815 192.915 198.897 192.238 198.518C190.465 197.529 188.438 196.906 186.323 196.7C184.208 196.495 182.065 196.712 180.07 197.336C179.468 197.525 179.7 198.323 180.337 198.156Z" fill="white"/>
<path d="M188.654 202.22C188.814 202.22 188.967 202.167 189.08 202.072C189.193 201.978 189.256 201.849 189.256 201.715C189.256 201.581 189.193 201.453 189.08 201.358C188.967 201.263 188.814 201.21 188.654 201.21C188.494 201.21 188.341 201.263 188.228 201.358C188.116 201.453 188.052 201.581 188.052 201.715C188.052 201.849 188.116 201.978 188.228 202.072C188.341 202.167 188.494 202.22 188.654 202.22Z" fill="white"/>
<path d="M155.097 317.111C157.281 326.227 160.94 335.048 165.973 343.332C166.321 343.906 167.3 343.401 166.978 342.832C164.56 338.673 162.416 334.406 160.555 330.049C158.761 325.731 157.294 321.321 156.164 316.847C156.014 316.273 154.947 316.509 155.097 317.094V317.111Z" fill="#18C4FF"/>
<path d="M137.108 283.154L140.726 283.039C140.88 283.036 141.027 282.983 141.136 282.891C141.244 282.799 141.306 282.675 141.308 282.546C141.306 282.417 141.244 282.293 141.135 282.202C141.027 282.111 140.88 282.059 140.726 282.058L137.108 282.241C137.031 282.234 136.954 282.24 136.88 282.26C136.807 282.28 136.739 282.312 136.682 282.355C136.625 282.398 136.579 282.451 136.547 282.51C136.516 282.569 136.5 282.633 136.5 282.698C136.5 282.762 136.516 282.826 136.547 282.885C136.579 282.944 136.625 282.997 136.682 283.04C136.739 283.083 136.807 283.115 136.88 283.135C136.954 283.155 137.031 283.161 137.108 283.154Z" fill="#18C4FF"/>
<path d="M160.74 283.625C165.651 282.718 170.412 283.688 175.254 284.36C176.027 284.469 176.376 283.51 175.583 283.355C170.713 282.385 165.378 281.742 160.439 282.695C159.714 282.833 160.015 283.763 160.74 283.625Z" fill="#18C4FF"/>
<path d="M195.241 288.619C193.347 291.663 191.203 294.594 188.825 297.389L190.097 297.527C189.97 296.764 189.996 295.988 190.173 295.231L190.275 294.749C190.275 294.657 190.309 294.571 190.33 294.485C190.35 294.399 190.33 294.336 190.166 294.525L191.534 294.703C192.484 294.875 192.902 293.647 191.937 293.486C191.251 293.311 190.529 293.256 189.817 293.326C189.559 293.398 189.333 293.534 189.167 293.715C189.001 293.896 188.904 294.114 188.887 294.342C188.597 295.487 188.555 296.668 188.763 297.826C188.887 298.36 189.721 298.348 190.036 297.969C192.355 295.136 194.413 292.158 196.192 289.061C196.493 288.544 195.583 288.085 195.261 288.607L195.241 288.619Z" fill="#18C4FF"/>
<path d="M227.567 159.067C228.846 160.249 228.456 161.937 228.34 163.4C228.292 163.974 229.427 164.106 229.53 163.532C229.851 161.81 229.858 159.744 228.353 158.406C227.861 157.97 227.088 158.625 227.567 159.067Z" fill="black"/>
<path d="M261.356 157.276C261.566 157.523 261.756 157.782 261.924 158.051L262.04 158.246C262.056 158.281 262.074 158.316 262.095 158.349C262.095 158.349 262.136 158.435 262.129 158.412C262.184 158.527 262.246 158.642 262.314 158.814C262.368 158.951 262.411 159.091 262.444 159.233C262.444 159.313 262.444 159.268 262.444 159.233C262.447 159.269 262.447 159.306 262.444 159.342V159.532C262.424 159.895 262.557 160.253 262.82 160.542C262.936 160.629 263.084 160.681 263.239 160.688C263.395 160.695 263.548 160.658 263.675 160.582C263.802 160.503 263.89 160.387 263.922 160.256C263.953 160.126 263.926 159.991 263.846 159.876C263.846 159.876 263.846 159.824 263.791 159.796C263.791 159.761 263.737 159.767 263.791 159.796C263.791 159.733 263.75 159.675 263.737 159.612C263.737 159.675 263.737 159.664 263.737 159.612C263.733 159.572 263.733 159.532 263.737 159.491V159.296C263.687 158.941 263.572 158.594 263.395 158.269C263.081 157.7 262.658 157.179 262.143 156.725C262.056 156.647 261.936 156.6 261.809 156.594C261.682 156.587 261.557 156.622 261.459 156.69C261.36 156.751 261.292 156.841 261.268 156.942C261.244 157.043 261.266 157.147 261.329 157.236L261.356 157.276Z" fill="black"/>
<path d="M267.068 157.809C267.129 157.947 267.239 158.056 267.307 158.194C267.371 158.344 267.423 158.497 267.465 158.653C267.567 158.986 267.69 159.319 267.772 159.658C267.915 160.314 268.007 160.977 268.046 161.644C268.046 161.785 268.113 161.921 268.232 162.021C268.352 162.121 268.513 162.177 268.682 162.177C268.851 162.177 269.013 162.121 269.132 162.021C269.251 161.921 269.318 161.785 269.318 161.644C269.355 160.852 269.247 160.06 268.997 159.296C268.887 158.916 268.743 158.544 268.566 158.182C268.502 157.991 268.392 157.813 268.243 157.659C268.093 157.505 267.907 157.378 267.697 157.287C267.611 157.268 267.52 157.268 267.433 157.287C267.347 157.306 267.268 157.344 267.204 157.397C267.141 157.45 267.094 157.516 267.071 157.588C267.047 157.66 267.046 157.737 267.068 157.809Z" fill="black"/>
<path d="M248.976 154.699C273.828 147.811 298.609 140.743 323.32 133.495C348.145 126.225 372.892 118.782 397.561 111.167C422.131 103.586 446.616 95.8181 471.016 87.8625C483.219 83.8904 495.403 79.8724 507.569 75.8085L516.926 72.6802C518.178 72.2612 519.997 71.4059 521.358 71.8421C521.735 71.9569 522.453 72.4161 522.405 72.8065C522.405 72.8065 521.482 73.7478 521.933 73.0762C522.323 72.5022 523.369 72.2497 524.094 71.9282C529.224 69.7241 534.354 67.5199 539.505 65.3502C557.577 57.6729 576.176 50.9012 595.203 45.0708C598.042 44.204 600.887 43.3488 603.739 42.5337C604.683 42.2582 604.28 40.9896 603.322 41.2709C582.434 47.3576 562.022 54.5391 542.207 62.7729C536.735 65.0689 531.331 67.3649 525.914 69.6954L521.851 71.4174C521.078 71.7503 520.059 72.0258 519.97 72.8639C519.847 73.9717 521.461 74.9073 522.665 74.5859C524.211 74.1841 524.19 72.5367 523.424 71.5896C522.022 69.8676 519.43 70.4416 517.487 71.0615C510.9 73.2083 504.361 75.4526 497.795 77.6338C471.506 86.3471 445.131 94.8653 418.67 103.188C392.089 111.546 365.434 119.723 338.703 127.721C312.064 135.723 285.347 143.506 258.552 151.071L248.668 153.832C248.032 154.01 248.306 154.86 248.949 154.682L248.976 154.699Z" fill="white"/>
<path d="M1219.99 404.278C1189.33 429.901 1147.67 450.143 1095.02 464.997C1042.37 479.852 984.863 487.278 922.5 487.278C860.139 487.278 802.632 479.852 749.983 464.997C697.334 450.143 655.675 429.905 625.005 404.278C594.333 378.653 579 350.726 579 320.496C579 294.437 590.561 270.021 613.693 247.262C636.825 224.503 668.449 205.39 708.579 189.928C705.765 182.981 702.443 176.381 698.608 170.121C694.774 163.868 691.325 158.742 688.258 154.744C685.188 150.751 681.039 146.319 675.795 141.458C670.56 136.591 666.599 133.158 663.915 131.159C661.233 129.16 656.825 125.864 650.687 121.258C644.557 116.656 640.593 113.654 638.806 112.264C638.547 112.176 637.526 111.399 635.738 109.915C633.95 108.44 633.054 107.707 633.054 107.707L630.753 105.361C629.474 104.065 628.899 103.237 629.025 102.894C629.154 102.543 628.899 101.675 628.26 100.288C627.619 98.8956 627.685 97.8523 628.45 97.1586V96.8966C629.474 93.9447 631.516 91.5541 634.583 89.7304C637.65 87.9122 641.106 87.0003 644.936 87.0003H646.855C663.471 88.3932 678.038 90.2982 690.559 92.7316C757.524 104.37 816.309 125.393 866.912 155.799C886.078 154.409 904.609 153.715 922.497 153.715C984.859 153.715 1042.37 161.14 1095.02 175.999C1147.66 190.856 1189.32 211.09 1219.99 236.714C1250.66 262.338 1266 290.267 1266 320.497C1266 350.723 1250.67 378.653 1219.99 404.278ZM1176.86 254.041C1150.15 233.543 1114.11 217.253 1068.75 205.181C1023.38 193.111 974.628 187.07 922.491 187.07C906.902 187.07 890.291 187.763 872.656 189.156L850.804 190.715L834.318 180.81C802.887 162.045 767.741 147.193 728.893 136.247C740.648 150.317 749.593 165.26 755.73 181.066L766.08 206.087L732.728 219.113C699.502 231.976 673.756 247.22 655.478 264.855C637.203 282.486 628.069 301.036 628.069 320.493C628.069 344.295 641.423 366.444 668.13 386.945C694.844 407.444 730.876 423.733 776.243 435.807C821.61 447.882 870.357 453.925 922.499 453.925C974.636 453.925 1023.38 447.885 1068.75 435.811C1114.11 423.736 1150.15 407.448 1176.86 386.949C1203.57 366.448 1216.92 344.298 1216.92 320.497C1216.92 296.697 1203.57 274.542 1176.86 254.041Z" fill="black"/>
<path d="M681.982 287.64V261.458H688.31V271.966H698.626V261.458H704.942V287.64H698.626V277.118H688.31V287.64H681.982ZM718.077 288.01C716.015 288.01 714.242 287.589 712.759 286.745C711.285 285.892 710.147 284.708 709.346 283.191C708.553 281.665 708.157 279.897 708.157 277.885C708.157 275.866 708.553 274.097 709.346 272.58C710.147 271.054 711.285 269.87 712.759 269.026C714.242 268.174 716.015 267.748 718.077 267.748C720.14 267.748 721.908 268.174 723.383 269.026C724.866 269.87 726.004 271.054 726.796 272.58C727.597 274.097 727.998 275.866 727.998 277.885C727.998 279.897 727.597 281.665 726.796 283.191C726.004 284.708 724.866 285.892 723.383 286.745C721.908 287.589 720.14 288.01 718.077 288.01ZM718.116 283.293C718.866 283.293 719.501 283.063 720.021 282.603C720.54 282.142 720.937 281.503 721.21 280.685C721.491 279.867 721.631 278.921 721.631 277.847C721.631 276.756 721.491 275.802 721.21 274.983C720.937 274.165 720.54 273.526 720.021 273.066C719.501 272.606 718.866 272.375 718.116 272.375C717.34 272.375 716.684 272.606 716.147 273.066C715.619 273.526 715.214 274.165 714.933 274.983C714.66 275.802 714.523 276.756 714.523 277.847C714.523 278.921 714.66 279.867 714.933 280.685C715.214 281.503 715.619 282.142 716.147 282.603C716.684 283.063 717.34 283.293 718.116 283.293ZM731.2 287.64V268.003H737.145V271.608H737.362C737.771 270.415 738.462 269.473 739.433 268.783C740.405 268.093 741.564 267.748 742.911 267.748C744.274 267.748 745.442 268.097 746.413 268.796C747.385 269.495 748.003 270.432 748.267 271.608H748.472C748.838 270.441 749.554 269.508 750.619 268.809C751.685 268.101 752.942 267.748 754.391 267.748C756.249 267.748 757.757 268.344 758.916 269.537C760.075 270.722 760.655 272.35 760.655 274.421V287.64H754.403V275.853C754.403 274.873 754.152 274.127 753.649 273.616C753.146 273.096 752.494 272.836 751.693 272.836C750.832 272.836 750.155 273.117 749.661 273.679C749.175 274.233 748.932 274.979 748.932 275.917V287.64H742.923V275.789C742.923 274.877 742.676 274.157 742.182 273.628C741.688 273.1 741.036 272.836 740.226 272.836C739.68 272.836 739.199 272.968 738.781 273.232C738.364 273.488 738.036 273.854 737.797 274.331C737.567 274.809 737.452 275.371 737.452 276.019V287.64H731.2ZM764.528 287.64V268.003H770.473V271.608H770.69C771.099 270.415 771.79 269.473 772.761 268.783C773.733 268.093 774.892 267.748 776.239 267.748C777.602 267.748 778.77 268.097 779.741 268.796C780.713 269.495 781.331 270.432 781.595 271.608H781.8C782.166 270.441 782.882 269.508 783.947 268.809C785.013 268.101 786.27 267.748 787.719 267.748C789.577 267.748 791.085 268.344 792.244 269.537C793.403 270.722 793.983 272.35 793.983 274.421V287.64H787.732V275.853C787.732 274.873 787.48 274.127 786.977 273.616C786.474 273.096 785.822 272.836 785.021 272.836C784.161 272.836 783.483 273.117 782.989 273.679C782.503 274.233 782.26 274.979 782.26 275.917V287.64H776.251V275.789C776.251 274.877 776.004 274.157 775.51 273.628C775.016 273.1 774.364 272.836 773.554 272.836C773.009 272.836 772.527 272.968 772.109 273.232C771.692 273.488 771.364 273.854 771.125 274.331C770.895 274.809 770.78 275.371 770.78 276.019V287.64H764.528ZM803.392 287.972C802.139 287.972 801.027 287.763 800.055 287.346C799.092 286.919 798.33 286.28 797.767 285.428C797.213 284.567 796.936 283.489 796.936 282.194C796.936 281.103 797.128 280.182 797.511 279.432C797.895 278.682 798.423 278.073 799.097 277.604C799.77 277.135 800.545 276.782 801.423 276.543C802.301 276.296 803.239 276.13 804.236 276.044C805.352 275.942 806.251 275.836 806.933 275.725C807.615 275.606 808.109 275.439 808.416 275.226C808.732 275.005 808.889 274.694 808.889 274.293V274.229C808.889 273.573 808.663 273.066 808.212 272.708C807.76 272.35 807.151 272.171 806.384 272.171C805.557 272.171 804.892 272.35 804.389 272.708C803.886 273.066 803.567 273.56 803.43 274.191L797.665 273.986C797.835 272.793 798.274 271.728 798.982 270.79C799.697 269.844 800.678 269.103 801.922 268.566C803.175 268.02 804.679 267.748 806.435 267.748C807.688 267.748 808.842 267.897 809.899 268.195C810.956 268.485 811.876 268.911 812.661 269.473C813.445 270.027 814.05 270.709 814.476 271.519C814.911 272.329 815.128 273.253 815.128 274.293V287.64H809.247V284.904H809.094C808.744 285.569 808.297 286.131 807.751 286.591C807.214 287.052 806.58 287.397 805.847 287.627C805.122 287.857 804.304 287.972 803.392 287.972ZM805.322 283.881C805.996 283.881 806.601 283.745 807.138 283.472C807.683 283.199 808.118 282.824 808.442 282.347C808.766 281.861 808.928 281.299 808.928 280.66V278.793C808.749 278.887 808.531 278.972 808.276 279.049C808.028 279.125 807.756 279.198 807.457 279.266C807.159 279.334 806.852 279.394 806.537 279.445C806.222 279.496 805.919 279.543 805.629 279.586C805.041 279.679 804.538 279.824 804.121 280.02C803.712 280.216 803.396 280.472 803.175 280.787C802.962 281.094 802.855 281.461 802.855 281.887C802.855 282.535 803.085 283.029 803.545 283.37C804.014 283.711 804.607 283.881 805.322 283.881ZM828.104 295.412C826.237 295.412 824.639 295.152 823.31 294.633C821.98 294.113 820.936 293.401 820.178 292.498C819.419 291.594 818.963 290.571 818.81 289.429L824.729 289.097C824.839 289.498 825.044 289.847 825.342 290.145C825.649 290.444 826.045 290.674 826.531 290.836C827.026 290.998 827.605 291.079 828.27 291.079C829.318 291.079 830.183 290.823 830.865 290.312C831.555 289.809 831.901 288.927 831.901 287.665V284.214H831.683C831.436 284.819 831.061 285.36 830.558 285.837C830.055 286.314 829.429 286.689 828.679 286.962C827.938 287.235 827.085 287.371 826.122 287.371C824.69 287.371 823.378 287.039 822.185 286.374C821 285.701 820.05 284.661 819.334 283.255C818.626 281.84 818.273 280.02 818.273 277.796C818.273 275.503 818.639 273.616 819.372 272.133C820.105 270.641 821.064 269.537 822.249 268.821C823.442 268.106 824.724 267.748 826.097 267.748C827.128 267.748 828.01 267.927 828.743 268.285C829.484 268.634 830.094 269.086 830.571 269.64C831.048 270.194 831.411 270.769 831.658 271.365H831.837V268.003H838.062V287.716C838.062 289.378 837.645 290.78 836.81 291.922C835.974 293.064 834.807 293.929 833.307 294.517C831.807 295.114 830.072 295.412 828.104 295.412ZM828.295 282.82C829.054 282.82 829.702 282.62 830.239 282.219C830.776 281.819 831.189 281.243 831.479 280.493C831.768 279.743 831.913 278.844 831.913 277.796C831.913 276.731 831.768 275.814 831.479 275.047C831.197 274.272 830.784 273.675 830.239 273.258C829.702 272.84 829.054 272.631 828.295 272.631C827.52 272.631 826.864 272.844 826.327 273.27C825.79 273.696 825.381 274.297 825.099 275.073C824.827 275.84 824.69 276.748 824.69 277.796C824.69 278.844 824.831 279.743 825.112 280.493C825.393 281.243 825.798 281.819 826.327 282.219C826.864 282.62 827.52 282.82 828.295 282.82ZM851.227 288.01C849.173 288.01 847.4 287.606 845.909 286.796C844.426 285.978 843.284 284.814 842.483 283.306C841.69 281.789 841.294 279.986 841.294 277.898C841.294 275.87 841.694 274.097 842.495 272.58C843.297 271.054 844.426 269.87 845.883 269.026C847.341 268.174 849.058 267.748 851.035 267.748C852.433 267.748 853.711 267.965 854.87 268.4C856.029 268.834 857.031 269.478 857.875 270.33C858.718 271.182 859.375 272.235 859.843 273.488C860.312 274.732 860.547 276.16 860.547 277.77V279.33H843.48V275.699H854.73C854.721 275.035 854.564 274.442 854.257 273.922C853.95 273.402 853.528 272.998 852.991 272.708C852.463 272.41 851.853 272.26 851.163 272.26C850.464 272.26 849.838 272.418 849.284 272.733C848.73 273.04 848.291 273.462 847.967 273.999C847.643 274.527 847.473 275.128 847.456 275.802V279.496C847.456 280.297 847.613 281 847.929 281.606C848.244 282.202 848.691 282.667 849.271 282.999C849.85 283.331 850.541 283.498 851.342 283.498C851.896 283.498 852.399 283.421 852.85 283.267C853.302 283.114 853.69 282.888 854.014 282.59C854.338 282.292 854.581 281.925 854.743 281.491L860.483 281.657C860.244 282.944 859.72 284.064 858.91 285.019C858.109 285.965 857.056 286.702 855.752 287.231C854.449 287.75 852.94 288.01 851.227 288.01ZM877.009 287.972C875.756 287.972 874.644 287.763 873.673 287.346C872.71 286.919 871.947 286.28 871.384 285.428C870.83 284.567 870.553 283.489 870.553 282.194C870.553 281.103 870.745 280.182 871.129 279.432C871.512 278.682 872.04 278.073 872.714 277.604C873.387 277.135 874.163 276.782 875.04 276.543C875.918 276.296 876.856 276.13 877.853 276.044C878.969 275.942 879.869 275.836 880.55 275.725C881.232 275.606 881.727 275.439 882.033 275.226C882.349 275.005 882.506 274.694 882.506 274.293V274.229C882.506 273.573 882.281 273.066 881.829 272.708C881.377 272.35 880.768 272.171 880.001 272.171C879.174 272.171 878.509 272.35 878.006 272.708C877.504 273.066 877.184 273.56 877.048 274.191L871.282 273.986C871.452 272.793 871.891 271.728 872.599 270.79C873.315 269.844 874.295 269.103 875.539 268.566C876.792 268.02 878.296 267.748 880.052 267.748C881.305 267.748 882.46 267.897 883.516 268.195C884.573 268.485 885.494 268.911 886.278 269.473C887.062 270.027 887.667 270.709 888.093 271.519C888.528 272.329 888.745 273.253 888.745 274.293V287.64H882.864V284.904H882.711C882.362 285.569 881.914 286.131 881.369 286.591C880.832 287.052 880.197 287.397 879.464 287.627C878.739 287.857 877.921 287.972 877.009 287.972ZM878.94 283.881C879.613 283.881 880.218 283.745 880.755 283.472C881.3 283.199 881.735 282.824 882.059 282.347C882.383 281.861 882.545 281.299 882.545 280.66V278.793C882.366 278.887 882.148 278.972 881.893 279.049C881.646 279.125 881.373 279.198 881.075 279.266C880.776 279.334 880.469 279.394 880.154 279.445C879.839 279.496 879.536 279.543 879.246 279.586C878.658 279.679 878.156 279.824 877.738 280.02C877.329 280.216 877.013 280.472 876.792 280.787C876.579 281.094 876.472 281.461 876.472 281.887C876.472 282.535 876.702 283.029 877.163 283.37C877.631 283.711 878.224 283.881 878.94 283.881ZM905.237 279.164V268.003H911.475V287.64H905.518V283.983H905.313C904.879 285.185 904.137 286.14 903.089 286.847C902.049 287.546 900.792 287.895 899.317 287.895C897.979 287.895 896.803 287.589 895.789 286.975C894.775 286.361 893.987 285.505 893.424 284.405C892.862 283.297 892.576 282.002 892.567 280.519V268.003H898.819V279.292C898.827 280.357 899.109 281.196 899.663 281.81C900.217 282.424 900.971 282.731 901.925 282.731C902.548 282.731 903.106 282.594 903.6 282.321C904.103 282.04 904.499 281.635 904.789 281.107C905.087 280.57 905.237 279.922 905.237 279.164ZM923.189 287.64V261.458H934.004C935.964 261.458 937.656 261.841 939.079 262.608C940.511 263.367 941.615 264.428 942.39 265.792C943.166 267.147 943.554 268.723 943.554 270.522C943.554 272.329 943.157 273.91 942.365 275.265C941.581 276.611 940.46 277.655 939.002 278.397C937.545 279.138 935.815 279.509 933.812 279.509H927.139V274.523H932.636C933.591 274.523 934.387 274.357 935.027 274.025C935.674 273.692 936.164 273.228 936.497 272.631C936.829 272.026 936.995 271.323 936.995 270.522C936.995 269.712 936.829 269.013 936.497 268.425C936.164 267.829 935.674 267.368 935.027 267.044C934.379 266.721 933.582 266.559 932.636 266.559H929.517V287.64H923.189ZM956.35 287.64H946.673V261.458H956.338C959.005 261.458 961.302 261.982 963.228 263.03C965.163 264.07 966.654 265.57 967.703 267.53C968.751 269.482 969.275 271.817 969.275 274.536C969.275 277.263 968.751 279.607 967.703 281.567C966.663 283.527 965.176 285.032 963.241 286.08C961.306 287.12 959.01 287.64 956.35 287.64ZM953.001 282.245H956.108C957.574 282.245 958.814 281.998 959.828 281.503C960.85 281 961.622 280.187 962.142 279.062C962.67 277.928 962.934 276.419 962.934 274.536C962.934 272.652 962.67 271.152 962.142 270.036C961.613 268.911 960.833 268.101 959.802 267.607C958.779 267.104 957.518 266.853 956.018 266.853H953.001V282.245ZM972.97 287.64V261.458H990.842V266.597H979.298V271.966H989.704V277.118H979.298V287.64H972.97ZM1001.76 287.64V268.003H1008.01V287.64H1001.76ZM1004.89 265.715C1004.02 265.715 1003.26 265.425 1002.63 264.846C1002 264.258 1001.69 263.55 1001.69 262.723C1001.69 261.905 1002 261.206 1002.63 260.627C1003.26 260.039 1004.02 259.745 1004.89 259.745C1005.78 259.745 1006.54 260.039 1007.16 260.627C1007.79 261.206 1008.1 261.905 1008.1 262.723C1008.1 263.55 1007.79 264.258 1007.16 264.846C1006.54 265.425 1005.78 265.715 1004.89 265.715ZM1018.24 276.441V287.64H1011.99V268.003H1017.94V271.608H1018.16C1018.59 270.407 1019.33 269.465 1020.38 268.783C1021.43 268.093 1022.68 267.748 1024.13 267.748C1025.51 267.748 1026.7 268.059 1027.72 268.681C1028.74 269.294 1029.53 270.155 1030.1 271.263C1030.67 272.363 1030.95 273.65 1030.94 275.124V287.64H1024.69V276.351C1024.7 275.26 1024.42 274.408 1023.86 273.794C1023.3 273.181 1022.53 272.874 1021.54 272.874C1020.89 272.874 1020.31 273.019 1019.8 273.309C1019.31 273.59 1018.93 273.995 1018.65 274.523C1018.39 275.052 1018.25 275.691 1018.24 276.441ZM1043.98 288.01C1041.9 288.01 1040.13 287.584 1038.64 286.732C1037.17 285.88 1036.04 284.695 1035.24 283.178C1034.45 281.652 1034.06 279.888 1034.06 277.885C1034.06 275.874 1034.45 274.11 1035.24 272.593C1036.05 271.067 1037.18 269.878 1038.66 269.026C1040.14 268.174 1041.91 267.748 1043.96 267.748C1045.78 267.748 1047.36 268.076 1048.71 268.732C1050.06 269.388 1051.12 270.317 1051.88 271.519C1052.64 272.712 1053.05 274.114 1053.09 275.725H1047.25C1047.13 274.719 1046.79 273.931 1046.23 273.36C1045.67 272.789 1044.95 272.503 1044.05 272.503C1043.33 272.503 1042.69 272.708 1042.15 273.117C1041.6 273.517 1041.18 274.114 1040.87 274.907C1040.57 275.691 1040.42 276.662 1040.42 277.821C1040.42 278.981 1040.57 279.961 1040.87 280.762C1041.18 281.554 1041.6 282.155 1042.15 282.564C1042.69 282.965 1043.33 283.165 1044.05 283.165C1044.63 283.165 1045.14 283.042 1045.59 282.794C1046.04 282.547 1046.41 282.185 1046.7 281.708C1046.99 281.222 1047.17 280.634 1047.25 279.944H1053.09C1053.03 281.563 1052.63 282.978 1051.88 284.188C1051.13 285.398 1050.09 286.34 1048.74 287.013C1047.41 287.678 1045.82 288.01 1043.98 288.01ZM1065.46 288.01C1063.39 288.01 1061.62 287.589 1060.14 286.745C1058.66 285.892 1057.53 284.708 1056.72 283.191C1055.93 281.665 1055.54 279.897 1055.54 277.885C1055.54 275.866 1055.93 274.097 1056.72 272.58C1057.53 271.054 1058.66 269.87 1060.14 269.026C1061.62 268.174 1063.39 267.748 1065.46 267.748C1067.52 267.748 1069.29 268.174 1070.76 269.026C1072.24 269.87 1073.38 271.054 1074.18 272.58C1074.98 274.097 1075.38 275.866 1075.38 277.885C1075.38 279.897 1074.98 281.665 1074.18 283.191C1073.38 284.708 1072.24 285.892 1070.76 286.745C1069.29 287.589 1067.52 288.01 1065.46 288.01ZM1065.49 283.293C1066.24 283.293 1066.88 283.063 1067.4 282.603C1067.92 282.142 1068.32 281.503 1068.59 280.685C1068.87 279.867 1069.01 278.921 1069.01 277.847C1069.01 276.756 1068.87 275.802 1068.59 274.983C1068.32 274.165 1067.92 273.526 1067.4 273.066C1066.88 272.606 1066.24 272.375 1065.49 272.375C1064.72 272.375 1064.06 272.606 1063.53 273.066C1063 273.526 1062.59 274.165 1062.31 274.983C1062.04 275.802 1061.9 276.756 1061.9 277.847C1061.9 278.921 1062.04 279.867 1062.31 280.685C1062.59 281.503 1063 282.142 1063.53 282.603C1064.06 283.063 1064.72 283.293 1065.49 283.293ZM1084.83 276.441V287.64H1078.58V268.003H1084.52V271.608H1084.74C1085.18 270.407 1085.92 269.465 1086.97 268.783C1088.01 268.093 1089.26 267.748 1090.71 267.748C1092.09 267.748 1093.29 268.059 1094.3 268.681C1095.33 269.294 1096.12 270.155 1096.68 271.263C1097.25 272.363 1097.53 273.65 1097.53 275.124V287.64H1091.27V276.351C1091.28 275.26 1091.01 274.408 1090.44 273.794C1089.89 273.181 1089.12 272.874 1088.13 272.874C1087.47 272.874 1086.89 273.019 1086.39 273.309C1085.9 273.59 1085.51 273.995 1085.24 274.523C1084.98 275.052 1084.84 275.691 1084.83 276.441ZM1107.65 276.441V287.64H1101.4V268.003H1107.34V271.608H1107.56C1107.99 270.407 1108.73 269.465 1109.78 268.783C1110.83 268.093 1112.08 267.748 1113.53 267.748C1114.91 267.748 1116.11 268.059 1117.12 268.681C1118.14 269.294 1118.94 270.155 1119.5 271.263C1120.07 272.363 1120.35 273.65 1120.34 275.124V287.64H1114.09V276.351C1114.1 275.26 1113.82 274.408 1113.26 273.794C1112.71 273.181 1111.93 272.874 1110.95 272.874C1110.29 272.874 1109.71 273.019 1109.21 273.309C1108.71 273.59 1108.33 273.995 1108.06 274.523C1107.79 275.052 1107.66 275.691 1107.65 276.441ZM1136.88 279.164V268.003H1143.12V287.64H1137.16V283.983H1136.96C1136.52 285.185 1135.78 286.14 1134.73 286.847C1133.69 287.546 1132.44 287.895 1130.96 287.895C1129.62 287.895 1128.45 287.589 1127.43 286.975C1126.42 286.361 1125.63 285.505 1125.07 284.405C1124.51 283.297 1124.22 282.002 1124.21 280.519V268.003H1130.46V279.292C1130.47 280.357 1130.75 281.196 1131.31 281.81C1131.86 282.424 1132.62 282.731 1133.57 282.731C1134.19 282.731 1134.75 282.594 1135.24 282.321C1135.75 282.04 1136.14 281.635 1136.43 281.107C1136.73 280.57 1136.88 279.922 1136.88 279.164ZM1158.35 288.01C1157.43 288.01 1156.64 287.687 1155.98 287.039C1155.34 286.391 1155.02 285.607 1155.02 284.687C1155.02 283.783 1155.34 283.012 1155.98 282.373C1156.64 281.725 1157.43 281.401 1158.35 281.401C1159.22 281.401 1159.99 281.725 1160.65 282.373C1161.32 283.012 1161.66 283.783 1161.67 284.687C1161.66 285.3 1161.5 285.858 1161.19 286.361C1160.88 286.864 1160.48 287.265 1159.97 287.563C1159.48 287.861 1158.94 288.01 1158.35 288.01ZM1169.32 288.01C1168.4 288.01 1167.61 287.687 1166.95 287.039C1166.3 286.391 1165.99 285.607 1165.99 284.687C1165.99 283.783 1166.3 283.012 1166.95 282.373C1167.61 281.725 1168.4 281.401 1169.32 281.401C1170.19 281.401 1170.95 281.725 1171.62 282.373C1172.29 283.012 1172.63 283.783 1172.64 284.687C1172.63 285.3 1172.47 285.858 1172.16 286.361C1171.85 286.864 1171.44 287.265 1170.94 287.563C1170.45 287.861 1169.91 288.01 1169.32 288.01ZM1180.29 288.01C1179.37 288.01 1178.58 287.687 1177.92 287.039C1177.27 286.391 1176.95 285.607 1176.96 284.687C1176.95 283.783 1177.27 283.012 1177.92 282.373C1178.58 281.725 1179.37 281.401 1180.29 281.401C1181.16 281.401 1181.92 281.725 1182.59 282.373C1183.26 283.012 1183.6 283.783 1183.61 284.687C1183.6 285.3 1183.44 285.858 1183.12 286.361C1182.82 286.864 1182.41 287.265 1181.91 287.563C1181.42 287.861 1180.87 288.01 1180.29 288.01Z" fill="black"/>
<path d="M695.982 352.64V326.458H706.797C708.757 326.458 710.449 326.812 711.872 327.519C713.304 328.218 714.408 329.223 715.183 330.536C715.959 331.84 716.347 333.387 716.347 335.177C716.347 336.992 715.95 338.535 715.158 339.804C714.365 341.066 713.24 342.029 711.783 342.694C710.325 343.35 708.599 343.678 706.605 343.678H699.766V338.692H705.429C706.384 338.692 707.18 338.569 707.82 338.321C708.467 338.066 708.957 337.682 709.29 337.171C709.622 336.651 709.788 335.986 709.788 335.177C709.788 334.367 709.622 333.698 709.29 333.169C708.957 332.633 708.467 332.232 707.82 331.968C707.172 331.695 706.375 331.559 705.429 331.559H702.31V352.64H695.982ZM710.722 340.674L717.241 352.64H710.338L703.946 340.674H710.722ZM728.61 353.01C726.556 353.01 724.783 352.606 723.292 351.796C721.809 350.978 720.667 349.814 719.865 348.306C719.073 346.789 718.676 344.986 718.676 342.898C718.676 340.87 719.077 339.097 719.878 337.58C720.679 336.054 721.809 334.87 723.266 334.026C724.723 333.174 726.441 332.748 728.418 332.748C729.816 332.748 731.094 332.965 732.253 333.4C733.412 333.834 734.414 334.478 735.257 335.33C736.101 336.182 736.757 337.235 737.226 338.488C737.695 339.732 737.929 341.16 737.929 342.77V344.33H720.863V340.699H732.113C732.104 340.035 731.946 339.442 731.64 338.922C731.333 338.402 730.911 337.998 730.374 337.708C729.846 337.41 729.236 337.26 728.546 337.26C727.847 337.26 727.221 337.418 726.667 337.733C726.113 338.04 725.674 338.462 725.35 338.999C725.026 339.527 724.855 340.128 724.838 340.802V344.496C724.838 345.297 724.996 346 725.311 346.606C725.627 347.202 726.074 347.667 726.654 347.999C727.233 348.331 727.924 348.498 728.725 348.498C729.279 348.498 729.782 348.421 730.233 348.267C730.685 348.114 731.073 347.888 731.397 347.59C731.721 347.292 731.963 346.925 732.125 346.491L737.865 346.657C737.627 347.944 737.103 349.064 736.293 350.019C735.492 350.965 734.439 351.702 733.135 352.231C731.831 352.75 730.323 353.01 728.61 353.01ZM748.294 352.921C746.845 352.921 745.528 352.546 744.344 351.796C743.159 351.046 742.213 349.921 741.506 348.421C740.798 346.921 740.445 345.059 740.445 342.834C740.445 340.525 740.811 338.624 741.544 337.133C742.277 335.641 743.236 334.537 744.42 333.821C745.614 333.106 746.896 332.748 748.268 332.748C749.3 332.748 750.182 332.927 750.915 333.285C751.648 333.634 752.253 334.086 752.73 334.64C753.207 335.194 753.57 335.769 753.817 336.365H753.945V326.458H760.196V352.64H754.009V349.456H753.817C753.553 350.062 753.178 350.628 752.692 351.157C752.206 351.685 751.597 352.111 750.864 352.435C750.139 352.759 749.283 352.921 748.294 352.921ZM750.467 348.05C751.226 348.05 751.874 347.837 752.411 347.411C752.947 346.976 753.361 346.367 753.651 345.583C753.94 344.799 754.085 343.878 754.085 342.821C754.085 341.748 753.94 340.823 753.651 340.047C753.369 339.272 752.956 338.675 752.411 338.258C751.874 337.84 751.226 337.631 750.467 337.631C749.692 337.631 749.036 337.844 748.499 338.27C747.962 338.696 747.553 339.297 747.271 340.073C746.999 340.848 746.862 341.765 746.862 342.821C746.862 343.878 747.003 344.799 747.284 345.583C747.565 346.367 747.97 346.976 748.499 347.411C749.036 347.837 749.692 348.05 750.467 348.05ZM764.15 352.64V333.003H770.401V352.64H764.15ZM767.282 330.715C766.404 330.715 765.65 330.425 765.019 329.846C764.388 329.258 764.073 328.55 764.073 327.723C764.073 326.905 764.388 326.206 765.019 325.627C765.65 325.039 766.404 324.745 767.282 324.745C768.168 324.745 768.922 325.039 769.544 325.627C770.175 326.206 770.49 326.905 770.49 327.723C770.49 328.55 770.175 329.258 769.544 329.846C768.922 330.425 768.168 330.715 767.282 330.715ZM774.38 352.64V333.003H780.452V336.583H780.657C781.015 335.287 781.599 334.324 782.408 333.694C783.218 333.054 784.16 332.735 785.234 332.735C785.523 332.735 785.822 332.756 786.129 332.799C786.435 332.833 786.721 332.888 786.985 332.965V338.398C786.687 338.296 786.295 338.215 785.809 338.155C785.332 338.096 784.906 338.066 784.531 338.066C783.789 338.066 783.12 338.232 782.523 338.564C781.935 338.888 781.471 339.344 781.13 339.932C780.798 340.512 780.631 341.194 780.631 341.978V352.64H774.38ZM797.692 353.01C795.638 353.01 793.865 352.606 792.374 351.796C790.891 350.978 789.749 349.814 788.947 348.306C788.155 346.789 787.759 344.986 787.759 342.898C787.759 340.87 788.159 339.097 788.96 337.58C789.761 336.054 790.891 334.87 792.348 334.026C793.805 333.174 795.523 332.748 797.5 332.748C798.898 332.748 800.176 332.965 801.335 333.4C802.494 333.834 803.496 334.478 804.339 335.33C805.183 336.182 805.839 337.235 806.308 338.488C806.777 339.732 807.011 341.16 807.011 342.77V344.33H789.945V340.699H801.195C801.186 340.035 801.028 339.442 800.722 338.922C800.415 338.402 799.993 337.998 799.456 337.708C798.928 337.41 798.318 337.26 797.628 337.26C796.929 337.26 796.303 337.418 795.749 337.733C795.195 338.04 794.756 338.462 794.432 338.999C794.108 339.527 793.938 340.128 793.92 340.802V344.496C793.92 345.297 794.078 346 794.393 346.606C794.709 347.202 795.156 347.667 795.736 347.999C796.315 348.331 797.006 348.498 797.807 348.498C798.361 348.498 798.864 348.421 799.315 348.267C799.767 348.114 800.155 347.888 800.479 347.59C800.803 347.292 801.045 346.925 801.207 346.491L806.947 346.657C806.709 347.944 806.185 349.064 805.375 350.019C804.574 350.965 803.521 351.702 802.217 352.231C800.913 352.75 799.405 353.01 797.692 353.01ZM819.37 353.01C817.299 353.01 815.522 352.584 814.039 351.732C812.565 350.88 811.431 349.695 810.639 348.178C809.846 346.652 809.45 344.888 809.45 342.885C809.45 340.874 809.846 339.11 810.639 337.593C811.44 336.067 812.578 334.878 814.052 334.026C815.535 333.174 817.304 332.748 819.358 332.748C821.173 332.748 822.754 333.076 824.1 333.732C825.456 334.388 826.512 335.317 827.271 336.519C828.038 337.712 828.443 339.114 828.485 340.725H822.643C822.524 339.719 822.183 338.931 821.62 338.36C821.066 337.789 820.342 337.503 819.447 337.503C818.723 337.503 818.088 337.708 817.542 338.117C816.997 338.517 816.571 339.114 816.264 339.907C815.966 340.691 815.816 341.662 815.816 342.821C815.816 343.981 815.966 344.961 816.264 345.762C816.571 346.554 816.997 347.155 817.542 347.564C818.088 347.965 818.723 348.165 819.447 348.165C820.027 348.165 820.538 348.042 820.981 347.794C821.433 347.547 821.804 347.185 822.093 346.708C822.383 346.222 822.566 345.634 822.643 344.944H828.485C828.426 346.563 828.021 347.978 827.271 349.188C826.529 350.398 825.485 351.34 824.139 352.013C822.801 352.678 821.211 353.01 819.37 353.01ZM842.768 333.003V337.606H830.381V333.003H842.768ZM832.976 328.299H839.227V346.465C839.227 346.848 839.287 347.16 839.406 347.398C839.534 347.628 839.717 347.794 839.956 347.897C840.195 347.991 840.48 348.037 840.812 348.037C841.051 348.037 841.303 348.016 841.567 347.973C841.839 347.922 842.044 347.88 842.18 347.846L843.126 352.358C842.828 352.444 842.406 352.55 841.861 352.678C841.324 352.806 840.68 352.887 839.93 352.921C838.464 352.989 837.207 352.819 836.159 352.41C835.119 351.992 834.322 351.344 833.768 350.466C833.223 349.589 832.959 348.485 832.976 347.155V328.299ZM845.958 352.64V333.003H852.21V352.64H845.958ZM849.09 330.715C848.212 330.715 847.458 330.425 846.827 329.846C846.197 329.258 845.881 328.55 845.881 327.723C845.881 326.905 846.197 326.206 846.827 325.627C847.458 325.039 848.212 324.745 849.09 324.745C849.977 324.745 850.731 325.039 851.353 325.627C851.984 326.206 852.299 326.905 852.299 327.723C852.299 328.55 851.984 329.258 851.353 329.846C850.731 330.425 849.977 330.715 849.09 330.715ZM865.355 353.01C863.292 353.01 861.52 352.589 860.037 351.745C858.562 350.892 857.424 349.708 856.623 348.191C855.831 346.665 855.434 344.897 855.434 342.885C855.434 340.866 855.831 339.097 856.623 337.58C857.424 336.054 858.562 334.87 860.037 334.026C861.52 333.174 863.292 332.748 865.355 332.748C867.417 332.748 869.186 333.174 870.66 334.026C872.143 334.87 873.281 336.054 874.074 337.58C874.875 339.097 875.275 340.866 875.275 342.885C875.275 344.897 874.875 346.665 874.074 348.191C873.281 349.708 872.143 350.892 870.66 351.745C869.186 352.589 867.417 353.01 865.355 353.01ZM865.393 348.293C866.143 348.293 866.778 348.063 867.298 347.603C867.818 347.142 868.214 346.503 868.487 345.685C868.768 344.867 868.909 343.921 868.909 342.847C868.909 341.756 868.768 340.802 868.487 339.983C868.214 339.165 867.818 338.526 867.298 338.066C866.778 337.606 866.143 337.375 865.393 337.375C864.618 337.375 863.961 337.606 863.424 338.066C862.896 338.526 862.491 339.165 862.21 339.983C861.937 340.802 861.801 341.756 861.801 342.847C861.801 343.921 861.937 344.867 862.21 345.685C862.491 346.503 862.896 347.142 863.424 347.603C863.961 348.063 864.618 348.293 865.393 348.293ZM884.729 341.441V352.64H878.478V333.003H884.422V336.608H884.64C885.074 335.407 885.816 334.465 886.864 333.783C887.912 333.093 889.161 332.748 890.61 332.748C891.99 332.748 893.188 333.059 894.202 333.681C895.225 334.294 896.017 335.155 896.58 336.263C897.151 337.363 897.432 338.65 897.424 340.124V352.64H891.172V341.351C891.181 340.26 890.904 339.408 890.341 338.794C889.787 338.181 889.016 337.874 888.027 337.874C887.371 337.874 886.792 338.019 886.289 338.309C885.794 338.59 885.411 338.995 885.138 339.523C884.874 340.052 884.738 340.691 884.729 341.441ZM1114.31 326.458L1113.72 344.624H1108.47L1107.88 326.458H1114.31ZM1111.09 353.01C1110.18 353.01 1109.39 352.687 1108.74 352.039C1108.09 351.391 1107.76 350.607 1107.76 349.687C1107.76 348.783 1108.09 348.012 1108.74 347.373C1109.39 346.725 1110.18 346.401 1111.09 346.401C1111.97 346.401 1112.74 346.725 1113.4 347.373C1114.07 348.012 1114.41 348.783 1114.41 349.687C1114.41 350.3 1114.25 350.858 1113.94 351.361C1113.63 351.864 1113.23 352.265 1112.72 352.563C1112.23 352.861 1111.68 353.01 1111.09 353.01ZM1126.54 326.458L1125.96 344.624H1120.7L1120.11 326.458H1126.54ZM1123.32 353.01C1122.41 353.01 1121.63 352.687 1120.97 352.039C1120.32 351.391 1120 350.607 1120 349.687C1120 348.783 1120.32 348.012 1120.97 347.373C1121.63 346.725 1122.41 346.401 1123.32 346.401C1124.2 346.401 1124.97 346.725 1125.64 347.373C1126.31 348.012 1126.65 348.783 1126.65 349.687C1126.65 350.3 1126.49 350.858 1126.17 351.361C1125.87 351.864 1125.46 352.265 1124.96 352.563C1124.46 352.861 1123.92 353.01 1123.32 353.01ZM1138.78 326.458L1138.19 344.624H1132.94L1132.35 326.458H1138.78ZM1135.56 353.01C1134.64 353.01 1133.86 352.687 1133.2 352.039C1132.56 351.391 1132.23 350.607 1132.23 349.687C1132.23 348.783 1132.56 348.012 1133.2 347.373C1133.86 346.725 1134.64 346.401 1135.56 346.401C1136.43 346.401 1137.21 346.725 1137.87 347.373C1138.54 348.012 1138.88 348.783 1138.88 349.687C1138.88 350.3 1138.72 350.858 1138.41 351.361C1138.1 351.864 1137.7 352.265 1137.19 352.563C1136.7 352.861 1136.15 353.01 1135.56 353.01Z" fill="black"/>
<path d="M909.028 352.64V333.003H915.28V352.64H909.028ZM912.161 330.715C911.283 330.715 910.528 330.425 909.898 329.846C909.267 329.258 908.952 328.55 908.952 327.723C908.952 326.905 909.267 326.206 909.898 325.627C910.528 325.039 911.283 324.745 912.161 324.745C913.047 324.745 913.801 325.039 914.423 325.627C915.054 326.206 915.369 326.905 915.369 327.723C915.369 328.55 915.054 329.258 914.423 329.846C913.801 330.425 913.047 330.715 912.161 330.715ZM919.259 352.64V333.003H925.203V336.608H925.421C925.83 335.415 926.52 334.473 927.492 333.783C928.463 333.093 929.623 332.748 930.969 332.748C932.333 332.748 933.5 333.097 934.472 333.796C935.444 334.495 936.061 335.432 936.326 336.608H936.53C936.897 335.441 937.613 334.508 938.678 333.809C939.743 333.101 941 332.748 942.449 332.748C944.307 332.748 945.816 333.344 946.975 334.537C948.134 335.722 948.713 337.35 948.713 339.421V352.64H942.462V340.853C942.462 339.873 942.211 339.127 941.708 338.616C941.205 338.096 940.553 337.836 939.752 337.836C938.891 337.836 938.213 338.117 937.719 338.679C937.233 339.233 936.99 339.979 936.99 340.917V352.64H930.982V340.789C930.982 339.877 930.735 339.157 930.24 338.628C929.746 338.1 929.094 337.836 928.284 337.836C927.739 337.836 927.257 337.968 926.84 338.232C926.422 338.488 926.094 338.854 925.855 339.331C925.625 339.809 925.51 340.371 925.51 341.019V352.64H919.259ZM952.587 352.64V333.003H958.532V336.608H958.749C959.158 335.415 959.848 334.473 960.82 333.783C961.792 333.093 962.951 332.748 964.297 332.748C965.661 332.748 966.828 333.097 967.8 333.796C968.772 334.495 969.39 335.432 969.654 336.608H969.858C970.225 335.441 970.941 334.508 972.006 333.809C973.071 333.101 974.328 332.748 975.777 332.748C977.635 332.748 979.144 333.344 980.303 334.537C981.462 335.722 982.042 337.35 982.042 339.421V352.64H975.79V340.853C975.79 339.873 975.539 339.127 975.036 338.616C974.533 338.096 973.881 337.836 973.08 337.836C972.219 337.836 971.542 338.117 971.047 338.679C970.561 339.233 970.319 339.979 970.319 340.917V352.64H964.31V340.789C964.31 339.877 964.063 339.157 963.569 338.628C963.074 338.1 962.422 337.836 961.613 337.836C961.067 337.836 960.586 337.968 960.168 338.232C959.75 338.488 959.422 338.854 959.184 339.331C958.953 339.809 958.838 340.371 958.838 341.019V352.64H952.587ZM985.915 352.64V333.003H992.167V352.64H985.915ZM989.047 330.715C988.169 330.715 987.415 330.425 986.784 329.846C986.154 329.258 985.838 328.55 985.838 327.723C985.838 326.905 986.154 326.206 986.784 325.627C987.415 325.039 988.169 324.745 989.047 324.745C989.934 324.745 990.688 325.039 991.31 325.627C991.941 326.206 992.256 326.905 992.256 327.723C992.256 328.55 991.941 329.258 991.31 329.846C990.688 330.425 989.934 330.715 989.047 330.715ZM1002.4 341.441V352.64H996.146V333.003H1002.09V336.608H1002.31C1002.74 335.407 1003.48 334.465 1004.53 333.783C1005.58 333.093 1006.83 332.748 1008.28 332.748C1009.66 332.748 1010.86 333.059 1011.87 333.681C1012.89 334.294 1013.69 335.155 1014.25 336.263C1014.82 337.363 1015.1 338.65 1015.09 340.124V352.64H1008.84V341.351C1008.85 340.26 1008.57 339.408 1008.01 338.794C1007.46 338.181 1006.68 337.874 1005.7 337.874C1005.04 337.874 1004.46 338.019 1003.96 338.309C1003.46 338.59 1003.08 338.995 1002.81 339.523C1002.54 340.052 1002.41 340.691 1002.4 341.441ZM1028.14 353.01C1026.09 353.01 1024.31 352.606 1022.82 351.796C1021.34 350.978 1020.2 349.814 1019.4 348.306C1018.6 346.789 1018.21 344.986 1018.21 342.898C1018.21 340.87 1018.61 339.097 1019.41 337.58C1020.21 336.054 1021.34 334.87 1022.8 334.026C1024.25 333.174 1025.97 332.748 1027.95 332.748C1029.35 332.748 1030.63 332.965 1031.78 333.4C1032.94 333.834 1033.94 334.478 1034.79 335.33C1035.63 336.182 1036.29 337.235 1036.76 338.488C1037.23 339.732 1037.46 341.16 1037.46 342.77V344.33H1020.39V340.699H1031.64C1031.64 340.035 1031.48 339.442 1031.17 338.922C1030.86 338.402 1030.44 337.998 1029.91 337.708C1029.38 337.41 1028.77 337.26 1028.08 337.26C1027.38 337.26 1026.75 337.418 1026.2 337.733C1025.64 338.04 1025.2 338.462 1024.88 338.999C1024.56 339.527 1024.39 340.128 1024.37 340.802V344.496C1024.37 345.297 1024.53 346 1024.84 346.606C1025.16 347.202 1025.61 347.667 1026.19 347.999C1026.76 348.331 1027.45 348.498 1028.26 348.498C1028.81 348.498 1029.31 348.421 1029.76 348.267C1030.22 348.114 1030.6 347.888 1030.93 347.59C1031.25 347.292 1031.49 346.925 1031.66 346.491L1037.4 346.657C1037.16 347.944 1036.63 349.064 1035.82 350.019C1035.02 350.965 1033.97 351.702 1032.67 352.231C1031.36 352.75 1029.85 353.01 1028.14 353.01ZM1046.9 341.441V352.64H1040.65V333.003H1046.6V336.608H1046.82C1047.25 335.407 1047.99 334.465 1049.04 333.783C1050.09 333.093 1051.34 332.748 1052.79 332.748C1054.17 332.748 1055.36 333.059 1056.38 333.681C1057.4 334.294 1058.19 335.155 1058.76 336.263C1059.33 337.363 1059.61 338.65 1059.6 340.124V352.64H1053.35V341.351C1053.36 340.26 1053.08 339.408 1052.52 338.794C1051.96 338.181 1051.19 337.874 1050.2 337.874C1049.55 337.874 1048.97 338.019 1048.46 338.309C1047.97 338.59 1047.59 338.995 1047.31 339.523C1047.05 340.052 1046.91 340.691 1046.9 341.441ZM1074.55 333.003V337.606H1062.17V333.003H1074.55ZM1064.76 328.299H1071.01V346.465C1071.01 346.848 1071.07 347.16 1071.19 347.398C1071.32 347.628 1071.5 347.794 1071.74 347.897C1071.98 347.991 1072.27 348.037 1072.6 348.037C1072.84 348.037 1073.09 348.016 1073.35 347.973C1073.62 347.922 1073.83 347.88 1073.97 347.846L1074.91 352.358C1074.61 352.444 1074.19 352.55 1073.65 352.678C1073.11 352.806 1072.47 352.887 1071.72 352.921C1070.25 352.989 1068.99 352.819 1067.94 352.41C1066.9 351.992 1066.11 351.344 1065.55 350.466C1065.01 349.589 1064.74 348.485 1064.76 347.155V328.299ZM1086.71 353.01C1084.66 353.01 1082.88 352.606 1081.39 351.796C1079.91 350.978 1078.77 349.814 1077.97 348.306C1077.17 346.789 1076.78 344.986 1076.78 342.898C1076.78 340.87 1077.18 339.097 1077.98 337.58C1078.78 336.054 1079.91 334.87 1081.37 334.026C1082.82 333.174 1084.54 332.748 1086.52 332.748C1087.92 332.748 1089.2 332.965 1090.35 333.4C1091.51 333.834 1092.52 334.478 1093.36 335.33C1094.2 336.182 1094.86 337.235 1095.33 338.488C1095.8 339.732 1096.03 341.16 1096.03 342.77V344.33H1078.96V340.699H1090.21C1090.21 340.035 1090.05 339.442 1089.74 338.922C1089.43 338.402 1089.01 337.998 1088.48 337.708C1087.95 337.41 1087.34 337.26 1086.65 337.26C1085.95 337.26 1085.32 337.418 1084.77 337.733C1084.21 338.04 1083.78 338.462 1083.45 338.999C1083.13 339.527 1082.96 340.128 1082.94 340.802V344.496C1082.94 345.297 1083.1 346 1083.41 346.606C1083.73 347.202 1084.18 347.667 1084.76 347.999C1085.33 348.331 1086.03 348.498 1086.83 348.498C1087.38 348.498 1087.88 348.421 1088.33 348.267C1088.79 348.114 1089.17 347.888 1089.5 347.59C1089.82 347.292 1090.06 346.925 1090.23 346.491L1095.97 346.657C1095.73 347.944 1095.2 349.064 1094.39 350.019C1093.59 350.965 1092.54 351.702 1091.24 352.231C1089.93 352.75 1088.42 353.01 1086.71 353.01Z" fill="#C0392B"/>
</svg>
